<svg xmlns="http://www.w3.org/2000/svg" xmlns:xlink="http://www.w3.org/1999/xlink" width="900" zoomAndPan="magnify" viewBox="0 0 675 299.999988" height="400" preserveAspectRatio="xMidYMid meet" version="1.0"><defs><g/><clipPath id="7bf5d86266"><path d="M 8.503906 71.074219 L 249.253906 71.074219 L 249.253906 297.757812 L 8.503906 297.757812 Z M 8.503906 71.074219 " clip-rule="nonzero"/></clipPath><clipPath id="c1cfe44162"><path d="M 76 2.300781 L 182 2.300781 L 182 72 L 76 72 Z M 76 2.300781 " clip-rule="nonzero"/></clipPath></defs><g clip-path="url(#7bf5d86266)"><path fill="#ffffff" d="M 154.417969 297.503906 L 154.113281 297.757812 L 148.8125 293.386719 C 142.242188 287.972656 135.589844 283.289062 128.882812 279.25 C 122.171875 283.289062 115.523438 287.972656 108.953125 293.386719 L 103.652344 297.757812 L 103.347656 297.503906 L 103.347656 276.003906 L 103.667969 276.246094 C 106.375 274.175781 109.09375 272.207031 111.824219 270.34375 C 102.441406 266.152344 92.988281 263.03125 83.535156 260.738281 C 61.207031 255.3125 38.710938 254.4375 17.046875 254.90625 L 8.503906 255.09375 L 8.503906 71.40625 L 16.71875 71.226562 C 39.589844 70.726562 63.441406 71.683594 87.460938 77.515625 C 98.902344 80.292969 110.34375 84.167969 121.6875 89.5 L 121.6875 94.8125 L 121.710938 94.8125 L 121.710938 219.464844 L 107.804688 101.648438 C 99.742188 98.3125 91.640625 95.738281 83.535156 93.769531 C 64.015625 89.03125 44.371094 87.761719 25.261719 87.832031 L 25.261719 238.082031 C 45.5 238.003906 66.417969 239.371094 87.460938 244.480469 C 101.328125 247.847656 115.191406 252.828125 128.882812 260.054688 C 142.570312 252.828125 156.4375 247.847656 170.300781 244.480469 C 191.34375 239.371094 212.261719 238.003906 232.503906 238.082031 L 232.503906 87.832031 C 213.394531 87.761719 193.746094 89.03125 174.230469 93.769531 C 166.140625 95.734375 158.054688 98.300781 150.007812 101.625 L 136.097656 219.464844 L 136.097656 108.1875 L 136.074219 108.203125 L 136.074219 89.5 C 147.417969 84.167969 158.859375 80.292969 170.300781 77.515625 C 194.320312 71.683594 218.171875 70.726562 241.042969 71.226562 L 249.257812 71.40625 L 249.257812 255.09375 L 240.71875 254.90625 C 219.054688 254.4375 196.554688 255.3125 174.230469 260.738281 C 164.777344 263.03125 155.324219 266.152344 145.9375 270.34375 C 148.667969 272.207031 151.386719 274.175781 154.097656 276.246094 L 154.417969 276.003906 L 154.417969 297.503906 " fill-opacity="1" fill-rule="nonzero"/></g><g clip-path="url(#c1cfe44162)"><path fill="#ffffff" d="M 108.644531 19.171875 L 108.644531 19.441406 C 98.574219 20.601562 93.832031 26.453125 93.550781 36.230469 C 92.910156 24.882812 86.964844 19.582031 76.625 19.28125 C 87.957031 18.640625 93.253906 12.6875 93.550781 2.335938 C 94.152344 12.996094 99.4375 18.320312 108.644531 19.171875 Z M 108.644531 49.363281 C 108.050781 49.425781 107.4375 49.472656 106.816406 49.507812 C 107.4375 49.527344 108.046875 49.558594 108.644531 49.605469 Z M 108.644531 19.441406 L 108.644531 19.171875 C 109.238281 19.226562 109.847656 19.265625 110.476562 19.28125 C 109.847656 19.320312 109.238281 19.371094 108.644531 19.441406 Z M 149.128906 19.125 L 149.128906 19.394531 C 148.53125 19.335938 147.921875 19.300781 147.296875 19.28125 C 147.925781 19.246094 148.535156 19.195312 149.128906 19.125 Z M 128.886719 71.605469 C 129.257812 58.679688 135.609375 51.015625 149.128906 49.652344 L 149.128906 49.414062 C 136.777344 48.464844 129.683594 41.523438 128.886719 27.410156 C 128.515625 40.335938 122.160156 48.003906 108.644531 49.363281 L 108.644531 49.605469 C 120.996094 50.554688 128.085938 57.496094 128.886719 71.605469 Z M 149.128906 19.394531 L 149.128906 19.125 C 159.199219 17.964844 163.941406 12.113281 164.222656 2.335938 C 164.863281 13.683594 170.808594 18.984375 181.144531 19.28125 C 169.816406 19.925781 164.519531 25.878906 164.222656 36.230469 C 163.617188 25.574219 158.332031 20.246094 149.128906 19.394531 Z M 149.128906 49.652344 C 149.722656 49.59375 150.332031 49.542969 150.957031 49.507812 C 150.335938 49.492188 149.722656 49.457031 149.128906 49.414062 L 149.128906 49.652344 " fill-opacity="1" fill-rule="evenodd"/></g><g fill="#ffffff" fill-opacity="1"><g transform="translate(278.689912, 134.857167)"><g><path d="M 46.9375 -31.46875 L 36.578125 -31.46875 C 36.179688 -34.132812 35.046875 -36.226562 33.171875 -37.75 C 31.296875 -39.269531 28.957031 -40.03125 26.15625 -40.03125 C 22.394531 -40.03125 19.382812 -38.65625 17.125 -35.90625 C 14.863281 -33.15625 13.734375 -29.253906 13.734375 -24.203125 C 13.734375 -19.035156 14.867188 -15.109375 17.140625 -12.421875 C 19.421875 -9.734375 22.398438 -8.390625 26.078125 -8.390625 C 28.804688 -8.390625 31.113281 -9.101562 33 -10.53125 C 34.894531 -11.957031 36.085938 -13.960938 36.578125 -16.546875 L 46.9375 -16.5 C 46.570312 -13.539062 45.515625 -10.75 43.765625 -8.125 C 42.015625 -5.507812 39.632812 -3.390625 36.625 -1.765625 C 33.625 -0.148438 30.050781 0.65625 25.90625 0.65625 C 21.59375 0.65625 17.738281 -0.316406 14.34375 -2.265625 C 10.945312 -4.222656 8.265625 -7.050781 6.296875 -10.75 C 4.335938 -14.457031 3.359375 -18.941406 3.359375 -24.203125 C 3.359375 -29.484375 4.347656 -33.976562 6.328125 -37.6875 C 8.316406 -41.394531 11.015625 -44.21875 14.421875 -46.15625 C 17.828125 -48.101562 21.65625 -49.078125 25.90625 -49.078125 C 29.644531 -49.078125 33.015625 -48.382812 36.015625 -47 C 39.023438 -45.625 41.484375 -43.625 43.390625 -41 C 45.304688 -38.382812 46.488281 -35.207031 46.9375 -31.46875 Z M 46.9375 -31.46875 "/></g></g></g><g fill="#ffffff" fill-opacity="1"><g transform="translate(328.762284, 134.857167)"><g><path d="M 21.375 0 L 4.203125 0 L 4.203125 -48.421875 L 21.515625 -48.421875 C 26.390625 -48.421875 30.585938 -47.453125 34.109375 -45.515625 C 37.628906 -43.585938 40.332031 -40.816406 42.21875 -37.203125 C 44.113281 -33.597656 45.0625 -29.28125 45.0625 -24.25 C 45.0625 -19.207031 44.109375 -14.875 42.203125 -11.25 C 40.304688 -7.625 37.585938 -4.84375 34.046875 -2.90625 C 30.515625 -0.96875 26.289062 0 21.375 0 Z M 14.453125 -8.765625 L 20.953125 -8.765625 C 25.503906 -8.765625 28.957031 -9.992188 31.3125 -12.453125 C 33.664062 -14.910156 34.84375 -18.84375 34.84375 -24.25 C 34.84375 -29.625 33.664062 -33.535156 31.3125 -35.984375 C 28.957031 -38.429688 25.507812 -39.65625 20.96875 -39.65625 L 14.453125 -39.65625 Z M 14.453125 -8.765625 "/></g></g></g><g fill="#ffffff" fill-opacity="1"><g transform="translate(377.17976, 134.857167)"><g><path d="M 4.203125 0 L 4.203125 -48.421875 L 23.3125 -48.421875 C 28.8125 -48.421875 33.078125 -46.984375 36.109375 -44.109375 C 39.148438 -41.242188 40.671875 -37.410156 40.671875 -32.609375 C 40.671875 -29.296875 39.929688 -26.460938 38.453125 -24.109375 C 36.984375 -21.765625 34.867188 -20 32.109375 -18.8125 L 42.390625 0 L 31.09375 0 L 21.921875 -17.171875 L 14.453125 -17.171875 L 14.453125 0 Z M 14.453125 -25.390625 L 21.390625 -25.390625 C 27.210938 -25.390625 30.125 -27.796875 30.125 -32.609375 C 30.125 -37.566406 27.195312 -40.046875 21.34375 -40.046875 L 14.453125 -40.046875 Z M 14.453125 -25.390625 "/></g></g></g><g fill="#ffffff" fill-opacity="1"><g transform="translate(420.868974, 134.857167)"><g/></g></g><g fill="#ffffff" fill-opacity="1"><g transform="translate(436.306777, 134.857167)"><g><path d="M 4.203125 0 L 4.203125 -48.421875 L 23.3125 -48.421875 C 28.8125 -48.421875 33.078125 -46.984375 36.109375 -44.109375 C 39.148438 -41.242188 40.671875 -37.410156 40.671875 -32.609375 C 40.671875 -29.296875 39.929688 -26.460938 38.453125 -24.109375 C 36.984375 -21.765625 34.867188 -20 32.109375 -18.8125 L 42.390625 0 L 31.09375 0 L 21.921875 -17.171875 L 14.453125 -17.171875 L 14.453125 0 Z M 14.453125 -25.390625 L 21.390625 -25.390625 C 27.210938 -25.390625 30.125 -27.796875 30.125 -32.609375 C 30.125 -37.566406 27.195312 -40.046875 21.34375 -40.046875 L 14.453125 -40.046875 Z M 14.453125 -25.390625 "/></g></g></g><g fill="#ffffff" fill-opacity="1"><g transform="translate(479.996002, 134.857167)"><g><path d="M 20.5625 0.703125 C 16.84375 0.703125 13.632812 -0.0546875 10.9375 -1.578125 C 8.25 -3.097656 6.175781 -5.253906 4.71875 -8.046875 C 3.269531 -10.847656 2.546875 -14.160156 2.546875 -17.984375 C 2.546875 -21.722656 3.269531 -25.003906 4.71875 -27.828125 C 6.175781 -30.648438 8.222656 -32.847656 10.859375 -34.421875 C 13.503906 -35.992188 16.609375 -36.78125 20.171875 -36.78125 C 23.367188 -36.78125 26.253906 -36.101562 28.828125 -34.75 C 31.410156 -33.394531 33.457031 -31.347656 34.96875 -28.609375 C 36.476562 -25.878906 37.234375 -22.457031 37.234375 -18.34375 L 37.234375 -15.578125 L 12.5 -15.578125 L 12.5 -15.5625 C 12.5 -12.84375 13.238281 -10.703125 14.71875 -9.140625 C 16.207031 -7.585938 18.210938 -6.8125 20.734375 -6.8125 C 22.421875 -6.8125 23.878906 -7.164062 25.109375 -7.875 C 26.335938 -8.582031 27.203125 -9.628906 27.703125 -11.015625 L 37.03125 -10.40625 C 36.3125 -7.03125 34.507812 -4.332031 31.625 -2.3125 C 28.75 -0.300781 25.0625 0.703125 20.5625 0.703125 Z M 12.5 -21.828125 L 27.75 -21.828125 C 27.738281 -23.984375 27.046875 -25.757812 25.671875 -27.15625 C 24.304688 -28.5625 22.523438 -29.265625 20.328125 -29.265625 C 18.085938 -29.265625 16.25 -28.539062 14.8125 -27.09375 C 13.382812 -25.644531 12.613281 -23.890625 12.5 -21.828125 Z M 12.5 -21.828125 "/></g></g></g><g fill="#ffffff" fill-opacity="1"><g transform="translate(519.784382, 134.857167)"><g><path d="M 4.015625 13.625 L 4.015625 -36.3125 L 13.953125 -36.3125 L 13.953125 -30.21875 L 14.40625 -30.21875 C 14.851562 -31.207031 15.492188 -32.207031 16.328125 -33.21875 C 17.171875 -34.226562 18.273438 -35.070312 19.640625 -35.75 C 21.015625 -36.4375 22.710938 -36.78125 24.734375 -36.78125 C 27.390625 -36.78125 29.828125 -36.09375 32.046875 -34.71875 C 34.273438 -33.34375 36.0625 -31.269531 37.40625 -28.5 C 38.757812 -25.738281 39.4375 -22.273438 39.4375 -18.109375 C 39.4375 -14.054688 38.78125 -10.640625 37.46875 -7.859375 C 36.164062 -5.078125 34.398438 -2.972656 32.171875 -1.546875 C 29.953125 -0.117188 27.460938 0.59375 24.703125 0.59375 C 22.753906 0.59375 21.097656 0.269531 19.734375 -0.375 C 18.367188 -1.019531 17.253906 -1.832031 16.390625 -2.8125 C 15.535156 -3.800781 14.875 -4.800781 14.40625 -5.8125 L 14.09375 -5.8125 L 14.09375 13.625 Z M 13.875 -18.15625 C 13.875 -14.925781 14.539062 -12.328125 15.875 -10.359375 C 17.207031 -8.398438 19.085938 -7.421875 21.515625 -7.421875 C 23.992188 -7.421875 25.882812 -8.414062 27.1875 -10.40625 C 28.5 -12.40625 29.15625 -14.988281 29.15625 -18.15625 C 29.15625 -21.3125 28.503906 -23.867188 27.203125 -25.828125 C 25.898438 -27.785156 24.003906 -28.765625 21.515625 -28.765625 C 19.066406 -28.765625 17.179688 -27.804688 15.859375 -25.890625 C 14.535156 -23.984375 13.875 -21.40625 13.875 -18.15625 Z M 13.875 -18.15625 "/></g></g></g><g fill="#ffffff" fill-opacity="1"><g transform="translate(561.889619, 134.857167)"><g><path d="M 20.421875 0.703125 C 16.753906 0.703125 13.582031 -0.078125 10.90625 -1.640625 C 8.238281 -3.210938 6.175781 -5.40625 4.71875 -8.21875 C 3.269531 -11.03125 2.546875 -14.296875 2.546875 -18.015625 C 2.546875 -21.765625 3.269531 -25.046875 4.71875 -27.859375 C 6.175781 -30.671875 8.238281 -32.859375 10.90625 -34.421875 C 13.582031 -35.992188 16.753906 -36.78125 20.421875 -36.78125 C 24.097656 -36.78125 27.269531 -35.992188 29.9375 -34.421875 C 32.613281 -32.859375 34.675781 -30.671875 36.125 -27.859375 C 37.570312 -25.046875 38.296875 -21.765625 38.296875 -18.015625 C 38.296875 -14.296875 37.570312 -11.03125 36.125 -8.21875 C 34.675781 -5.40625 32.613281 -3.210938 29.9375 -1.640625 C 27.269531 -0.078125 24.097656 0.703125 20.421875 0.703125 Z M 20.46875 -7.09375 C 22.957031 -7.09375 24.84375 -8.128906 26.125 -10.203125 C 27.414062 -12.285156 28.0625 -14.914062 28.0625 -18.09375 C 28.0625 -21.257812 27.414062 -23.882812 26.125 -25.96875 C 24.84375 -28.0625 22.957031 -29.109375 20.46875 -29.109375 C 17.9375 -29.109375 16.023438 -28.0625 14.734375 -25.96875 C 13.441406 -23.882812 12.796875 -21.257812 12.796875 -18.09375 C 12.796875 -14.914062 13.441406 -12.285156 14.734375 -10.203125 C 16.023438 -8.128906 17.9375 -7.09375 20.46875 -7.09375 Z M 20.46875 -7.09375 "/></g></g></g><g fill="#ffffff" fill-opacity="1"><g transform="translate(602.741865, 134.857167)"><g><path d="M 4.015625 0 L 4.015625 -36.3125 L 13.78125 -36.3125 L 13.78125 -29.984375 L 14.15625 -29.984375 C 14.820312 -32.234375 15.929688 -33.9375 17.484375 -35.09375 C 19.035156 -36.25 20.835938 -36.828125 22.890625 -36.828125 C 23.867188 -36.828125 24.773438 -36.707031 25.609375 -36.46875 C 26.441406 -36.238281 27.1875 -35.921875 27.84375 -35.515625 L 24.828125 -27.1875 C 24.347656 -27.425781 23.828125 -27.628906 23.265625 -27.796875 C 22.710938 -27.960938 22.085938 -28.046875 21.390625 -28.046875 C 19.359375 -28.046875 17.632812 -27.347656 16.21875 -25.953125 C 14.8125 -24.566406 14.101562 -22.765625 14.09375 -20.546875 L 14.09375 0 Z M 4.015625 0 "/></g></g></g><g fill="#ffffff" fill-opacity="1"><g transform="translate(631.276973, 134.857167)"><g><path d="M 23.328125 -36.3125 L 23.328125 -28.75 L 16.5 -28.75 L 16.5 -11.15625 C 16.5 -9.769531 16.8125 -8.832031 17.4375 -8.34375 C 18.070312 -7.851562 18.894531 -7.609375 19.90625 -7.609375 C 20.375 -7.609375 20.84375 -7.648438 21.3125 -7.734375 C 21.789062 -7.828125 22.15625 -7.894531 22.40625 -7.9375 L 24 -0.453125 C 23.488281 -0.296875 22.773438 -0.113281 21.859375 0.09375 C 20.953125 0.3125 19.84375 0.445312 18.53125 0.5 C 14.875 0.65625 11.9375 -0.132812 9.71875 -1.875 C 7.507812 -3.613281 6.414062 -6.265625 6.4375 -9.828125 L 6.4375 -28.75 L 1.46875 -28.75 L 1.46875 -36.3125 L 6.4375 -36.3125 L 6.4375 -45.015625 L 16.5 -45.015625 L 16.5 -36.3125 Z M 23.328125 -36.3125 "/></g></g></g><g fill="#ffffff" fill-opacity="1"><g transform="translate(363.01803, 227.85716)"><g><path d="M 15.109375 0 L 1.25 -48.421875 L 12.4375 -48.421875 L 20.453125 -14.78125 L 20.859375 -14.78125 L 29.703125 -48.421875 L 39.265625 -48.421875 L 48.09375 -14.703125 L 48.515625 -14.703125 L 56.53125 -48.421875 L 67.71875 -48.421875 L 53.859375 0 L 43.875 0 L 34.65625 -31.65625 L 34.28125 -31.65625 L 25.078125 0 Z M 15.109375 0 "/></g></g></g><g fill="#ffffff" fill-opacity="1"><g transform="translate(431.979835, 227.85716)"><g><path d="M 4.015625 0 L 4.015625 -36.3125 L 13.78125 -36.3125 L 13.78125 -29.984375 L 14.15625 -29.984375 C 14.820312 -32.234375 15.929688 -33.9375 17.484375 -35.09375 C 19.035156 -36.25 20.835938 -36.828125 22.890625 -36.828125 C 23.867188 -36.828125 24.773438 -36.707031 25.609375 -36.46875 C 26.441406 -36.238281 27.1875 -35.921875 27.84375 -35.515625 L 24.828125 -27.1875 C 24.347656 -27.425781 23.828125 -27.628906 23.265625 -27.796875 C 22.710938 -27.960938 22.085938 -28.046875 21.390625 -28.046875 C 19.359375 -28.046875 17.632812 -27.347656 16.21875 -25.953125 C 14.8125 -24.566406 14.101562 -22.765625 14.09375 -20.546875 L 14.09375 0 Z M 4.015625 0 "/></g></g></g><g fill="#ffffff" fill-opacity="1"><g transform="translate(460.514943, 227.85716)"><g><path d="M 4.015625 0 L 4.015625 -36.3125 L 14.09375 -36.3125 L 14.09375 0 Z M 9.078125 -41 C 7.597656 -41 6.320312 -41.5 5.25 -42.5 C 4.175781 -43.5 3.640625 -44.703125 3.640625 -46.109375 C 3.640625 -47.503906 4.175781 -48.695312 5.25 -49.6875 C 6.320312 -50.6875 7.597656 -51.1875 9.078125 -51.1875 C 10.578125 -51.1875 11.863281 -50.6875 12.9375 -49.6875 C 14.007812 -48.695312 14.546875 -47.503906 14.546875 -46.109375 C 14.546875 -44.703125 14.007812 -43.5 12.9375 -42.5 C 11.863281 -41.5 10.578125 -41 9.078125 -41 Z M 9.078125 -41 "/></g></g></g><g fill="#ffffff" fill-opacity="1"><g transform="translate(478.62421, 227.85716)"><g><path d="M 23.328125 -36.3125 L 23.328125 -28.75 L 16.5 -28.75 L 16.5 -11.15625 C 16.5 -9.769531 16.8125 -8.832031 17.4375 -8.34375 C 18.070312 -7.851562 18.894531 -7.609375 19.90625 -7.609375 C 20.375 -7.609375 20.84375 -7.648438 21.3125 -7.734375 C 21.789062 -7.828125 22.15625 -7.894531 22.40625 -7.9375 L 24 -0.453125 C 23.488281 -0.296875 22.773438 -0.113281 21.859375 0.09375 C 20.953125 0.3125 19.84375 0.445312 18.53125 0.5 C 14.875 0.65625 11.9375 -0.132812 9.71875 -1.875 C 7.507812 -3.613281 6.414062 -6.265625 6.4375 -9.828125 L 6.4375 -28.75 L 1.46875 -28.75 L 1.46875 -36.3125 L 6.4375 -36.3125 L 6.4375 -45.015625 L 16.5 -45.015625 L 16.5 -36.3125 Z M 23.328125 -36.3125 "/></g></g></g><g fill="#ffffff" fill-opacity="1"><g transform="translate(504.487844, 227.85716)"><g><path d="M 20.5625 0.703125 C 16.84375 0.703125 13.632812 -0.0546875 10.9375 -1.578125 C 8.25 -3.097656 6.175781 -5.253906 4.71875 -8.046875 C 3.269531 -10.847656 2.546875 -14.160156 2.546875 -17.984375 C 2.546875 -21.722656 3.269531 -25.003906 4.71875 -27.828125 C 6.175781 -30.648438 8.222656 -32.847656 10.859375 -34.421875 C 13.503906 -35.992188 16.609375 -36.78125 20.171875 -36.78125 C 23.367188 -36.78125 26.253906 -36.101562 28.828125 -34.75 C 31.410156 -33.394531 33.457031 -31.347656 34.96875 -28.609375 C 36.476562 -25.878906 37.234375 -22.457031 37.234375 -18.34375 L 37.234375 -15.578125 L 12.5 -15.578125 L 12.5 -15.5625 C 12.5 -12.84375 13.238281 -10.703125 14.71875 -9.140625 C 16.207031 -7.585938 18.210938 -6.8125 20.734375 -6.8125 C 22.421875 -6.8125 23.878906 -7.164062 25.109375 -7.875 C 26.335938 -8.582031 27.203125 -9.628906 27.703125 -11.015625 L 37.03125 -10.40625 C 36.3125 -7.03125 34.507812 -4.332031 31.625 -2.3125 C 28.75 -0.300781 25.0625 0.703125 20.5625 0.703125 Z M 12.5 -21.828125 L 27.75 -21.828125 C 27.738281 -23.984375 27.046875 -25.757812 25.671875 -27.15625 C 24.304688 -28.5625 22.523438 -29.265625 20.328125 -29.265625 C 18.085938 -29.265625 16.25 -28.539062 14.8125 -27.09375 C 13.382812 -25.644531 12.613281 -23.890625 12.5 -21.828125 Z M 12.5 -21.828125 "/></g></g></g><g fill="#ffffff" fill-opacity="1"><g transform="translate(544.276224, 227.85716)"><g><path d="M 4.015625 0 L 4.015625 -36.3125 L 13.78125 -36.3125 L 13.78125 -29.984375 L 14.15625 -29.984375 C 14.820312 -32.234375 15.929688 -33.9375 17.484375 -35.09375 C 19.035156 -36.25 20.835938 -36.828125 22.890625 -36.828125 C 23.867188 -36.828125 24.773438 -36.707031 25.609375 -36.46875 C 26.441406 -36.238281 27.1875 -35.921875 27.84375 -35.515625 L 24.828125 -27.1875 C 24.347656 -27.425781 23.828125 -27.628906 23.265625 -27.796875 C 22.710938 -27.960938 22.085938 -28.046875 21.390625 -28.046875 C 19.359375 -28.046875 17.632812 -27.347656 16.21875 -25.953125 C 14.8125 -24.566406 14.101562 -22.765625 14.09375 -20.546875 L 14.09375 0 Z M 4.015625 0 "/></g></g></g></svg>