<svg width="328" height="12" viewBox="0 0 328 12" fill="none" xmlns="http://www.w3.org/2000/svg">
<rect width="328" height="12" fill="#F5F5F5"/>
<mask id="mask0_0_1" style="mask-type:alpha" maskUnits="userSpaceOnUse" x="-3" y="0" width="336" height="12">
<rect x="-3" width="336" height="12" fill="#C4C4C4"/>
</mask>
<g mask="url(#mask0_0_1)">
<path d="M47.4686 -2.53796L48.2897 -2.69614L46.6918 -2.92291L47.4578 -3.08891C48.2259 -3.0874 49.2212 -2.83866 49.7627 -2.97083C49.8289 -3.09879 48.9925 -3.13986 48.779 -3.24181C48.5902 -3.34631 48.436 -3.45013 48.3184 -3.55202C48.7368 -3.55092 49.1967 -3.52628 49.6709 -3.47953C50.3087 -3.40318 50.9343 -3.36607 51.4786 -3.37229C52.5918 -3.35167 53.6672 -3.37224 54.8774 -3.3677L54.4747 -3.67567L56.0344 -3.60362C56.1997 -3.58016 56.3968 -3.61789 56.5592 -3.58887C57.9109 -3.34329 58.4829 -3.47711 59.1318 -3.58807C59.2648 -3.61678 59.4251 -3.63822 59.6083 -3.65182C61.4115 -3.59299 63.0375 -3.24878 64.6614 -3.07207C64.9671 -3.02695 65.2602 -2.96904 65.5201 -2.90243C66.0849 -2.77295 66.7132 -2.66724 67.3475 -2.59496C67.9817 -2.52269 68.6017 -2.48616 69.1508 -2.48871C70.3649 -2.49157 71.7365 -2.40593 73.1331 -2.24008C73.5484 -2.18545 73.9639 -2.14941 74.3533 -2.13426C74.7426 -2.1191 75.0972 -2.12517 75.3944 -2.15207L76.3386 -1.97627C76.7478 -2.0476 77.2668 -2.08674 77.864 -2.09131C78.4611 -2.09587 79.124 -2.06577 79.8125 -2.00283C80.5461 -1.93455 81.2912 -1.88852 82.0524 -1.81633C83.6247 -1.67832 85.155 -1.59392 86.5955 -1.56575C88.7409 -1.48225 90.8369 -1.4177 93.0011 -1.31361C94.3551 -1.26336 95.6743 -1.23573 96.9508 -1.23085C98.48 -1.21119 100.134 -1.11605 101.833 -0.950018C101.753 -0.794238 101.008 -0.84026 100.508 -0.845531C98.8943 -0.871424 97.2433 -0.938517 95.5836 -0.98892C94.836 -1.00859 94.1089 -1.01605 93.4066 -1.01122C92.2325 -1.01768 90.9948 -1.05919 89.7147 -1.13504C87.6925 -1.2185 85.7348 -1.25861 83.8618 -1.25498C83.715 -1.24881 83.5805 -1.23788 83.4605 -1.22236C83.4354 -1.20893 83.4305 -1.19198 83.4461 -1.17315C83.4617 -1.15433 83.4974 -1.13424 83.5497 -1.11484C83.602 -1.09543 83.6691 -1.07735 83.7448 -1.06231C83.8204 -1.04728 83.9019 -1.03579 83.9816 -1.02897C84.7255 -0.9234 85.5245 -0.810011 86.226 -0.79406C86.2531 -0.79287 86.282 -0.790147 86.3106 -0.78609C86.3392 -0.782032 86.3667 -0.776742 86.3913 -0.770601C87.9618 -0.547728 89.253 -0.585444 90.4764 -0.549184C92.5075 -0.451184 94.4654 -0.405407 96.3206 -0.412547C96.601 -0.412061 96.9038 -0.399322 97.2179 -0.374788C99.1609 -0.275339 100.978 -0.264217 102.583 -0.341922C103.244 -0.361609 103.859 -0.405803 104.569 -0.406543C105.006 -0.409585 105.387 -0.437787 105.688 -0.489463C105.989 -0.541138 106.205 -0.615217 106.321 -0.707245C106.621 -0.658794 106.925 -0.615613 107.23 -0.578219C107.413 -0.556838 107.588 -0.551158 107.72 -0.562347C107.852 -0.573535 107.931 -0.600755 107.942 -0.6385C107.997 -0.744208 107.58 -0.797293 107.219 -0.84256C107.437 -0.865231 107.682 -0.878568 107.95 -0.882249C109.454 -0.906404 111.068 -0.877895 112.756 -0.797351C114.067 -0.700941 115.113 -0.779412 116.492 -0.643456C116.657 -0.619995 116.793 -0.654429 116.945 -0.662697C117.342 -0.706236 117.836 -0.716021 118.385 -0.691199C118.934 -0.666376 119.521 -0.607695 120.095 -0.520243C120.81 -0.759164 122.355 -0.486218 123.495 -0.461688C123.847 -0.340184 123.444 -0.361545 123.426 -0.328163C123.409 -0.294782 123.426 -0.328171 123.289 -0.34772C122.15 -0.175651 120.589 -0.138131 118.826 -0.240433C118.5 -0.240009 118.19 -0.232169 117.898 -0.216992C117.455 -0.19551 116.956 -0.197654 116.422 -0.223333C115.839 -0.242193 115.303 -0.233235 114.841 -0.196896C114.575 -0.197487 114.35 -0.179283 114.187 -0.143956C114.024 -0.10863 113.928 -0.057328 113.908 0.00518173C114.086 0.0533707 114.283 0.0974645 114.491 0.135713C115.581 0.28673 116.666 0.349242 117.536 0.310944C119.049 0.24496 120.849 0.309351 122.458 0.286824C123.545 0.277698 124.702 0.303692 125.907 0.36432C125.907 0.36432 125.876 0.425519 125.873 0.431082C126.015 0.45758 126.165 0.478839 126.314 0.493644C126.314 0.493644 126.314 0.493644 126.328 0.465826C126.262 0.439113 126.172 0.413983 126.07 0.393344L125.712 0.342512C125.955 0.329284 126.182 0.289899 126.436 0.313962C126.971 0.358669 127.482 0.377543 127.938 0.369462C128.395 0.361382 128.787 0.326509 129.093 0.266939C129.634 0.190592 130.306 0.155872 131.068 0.165022C131.651 0.156687 132.213 0.138773 132.752 0.111369C132.752 0.111369 132.786 0.0446122 133.041 0.00912955C132.8 -0.0346328 132.548 -0.0703684 132.297 -0.0964371C131.207 -0.161565 130.114 -0.221132 129.043 -0.26566C128.648 -0.27047 128.277 -0.263009 127.937 -0.243424C126.994 -0.220504 125.936 -0.253033 124.822 -0.339115C124.822 -0.339115 124.602 -0.370393 124.491 -0.386034C124.804 -0.532787 125.881 -0.385869 126.317 -0.485255C126.582 -0.483445 127.049 -0.470947 127.033 -0.497111C126.997 -0.532026 126.992 -0.564461 127.02 -0.592091C127.048 -0.61972 127.108 -0.64186 127.195 -0.656921C127.282 -0.671982 127.394 -0.679596 127.523 -0.679208C127.653 -0.678821 127.796 -0.670443 127.943 -0.654682C129.169 -0.569418 130.324 -0.545707 131.337 -0.585C131.721 -0.584243 132.152 -0.558971 132.533 -0.552648C132.766 -0.545034 132.979 -0.549269 133.161 -0.56512C134.082 -0.681863 135.321 -0.690388 136.693 -0.589418C137.355 -0.553116 137.975 -0.548262 138.519 -0.575101C138.906 -0.579906 139.07 -0.496904 139.345 -0.457805L140.515 -0.375382L139.013 -0.272103C139.334 -0.0354169 139.589 0.0426264 140.114 0.0573704C140.879 0.0796381 141.625 0.0896982 142.346 0.0874881C142.879 0.0855421 143.32 0.0345701 144.042 0.125105C144.169 0.139871 144.292 0.14465 144.39 0.138642C145.235 0.0582676 146.254 0.0398218 147.375 0.084563C147.956 -0.0659461 148.945 0.0803868 149.86 0.198292C150.155 0.0849206 149.62 0.0328785 149.301 -0.0362965C150.066 -0.0292164 150.837 -0.03326 151.627 -0.0167057C151.865 -0.0227317 152.136 -0.0124226 152.421 0.0134113C152.705 0.0392431 152.994 0.0798941 153.265 0.132183C153.398 0.165969 153.557 0.191397 153.711 0.203187C153.864 0.214978 154 0.212227 154.09 0.195507C154.5 0.146192 155.157 0.191613 155.496 0.108314C155.616 0.0891573 155.789 0.0864834 155.982 0.100758C156.175 0.115035 156.376 0.145338 156.55 0.186234C156.36 0.198993 156.19 0.219085 156.046 0.24607C155.527 0.333725 155.718 0.480187 156.376 0.693121C157.388 0.681409 158.421 0.684734 159.359 0.644605C159.882 0.608579 160.522 0.619841 161.208 0.677123C161.894 0.734407 162.599 0.83544 163.243 0.968864C163.476 1.02017 163.742 1.0557 163.987 1.06841C164.233 1.08112 164.44 1.07007 164.568 1.03745C164.648 0.999728 164.672 0.951985 164.64 0.898363L163.979 0.804526C163.979 0.804526 164.005 0.754453 164.01 0.743326L164.961 0.734912C165.464 0.734621 165.989 0.749369 166.464 0.745167C167.162 0.717225 167.959 0.732801 168.806 0.79093C169.587 0.850534 170.355 0.895589 171.103 0.925694C171.826 0.956683 172.35 0.857895 173.038 0.842118C173.559 0.830227 174.132 0.842935 174.734 0.879748C175.776 0.945034 176.731 0.945158 177.514 0.880097C178.427 1.23062 178.871 1.28761 179.718 1.1929L180.117 1.16584L180.226 1.24102L180.53 1.22449C181.1 1.20976 181.669 1.19504 182.263 1.18979C183.09 1.22232 183.982 1.30984 184.853 1.4438C185.018 1.46726 185.243 1.54697 185.388 1.60937C185.533 1.67178 185.85 1.86004 186.082 1.98259C185.829 2.07206 185.548 2.15761 185.347 2.26046C185.327 2.27803 185.329 2.29898 185.353 2.32163C185.377 2.34428 185.422 2.368 185.485 2.39087C185.548 2.41374 185.627 2.43513 185.716 2.45333C185.804 2.47153 185.9 2.48602 185.995 2.49565C186.18 2.51639 186.363 2.53022 186.535 2.53656C187.387 2.5475 188.202 2.53937 188.973 2.51224C189.255 2.47398 189.64 2.47034 190.068 2.50192C190.497 2.5335 190.943 2.59848 191.338 2.68656C192.347 2.63368 193.519 2.6493 194.774 2.73233C196.101 2.68183 197.705 2.78396 198.945 2.67331C198.916 2.72895 199.044 2.82474 199.223 2.87992C199.505 2.96375 199.825 3.04144 200.168 3.1097L202.791 3.24297C202.889 3.3115 203.011 3.38087 203.157 3.45018C203.256 3.50493 203.43 3.55851 203.641 3.59955C203.851 3.64059 204.083 3.66588 204.285 3.67005C204.807 3.69036 205.245 3.64495 205.867 3.75713C204.909 3.86318 203.616 3.84909 202.22 3.71738C200.908 3.6172 199.647 3.56714 198.482 3.56904C198.098 3.56829 197.592 3.57414 197.472 3.63473C197.206 3.80599 196.51 3.77892 195.698 3.74733C195.061 3.71275 194.478 3.71663 193.999 3.75865C193.519 3.80068 193.157 3.87965 192.941 3.98907C192.886 4.09477 193.017 4.185 193.577 4.24651L195.904 4.49316C196.247 4.46145 196.572 4.42391 196.879 4.3807C197.395 4.32332 198.033 4.30756 198.742 4.33467C199.451 4.36178 200.213 4.43102 200.968 4.53701C201.354 4.59175 201.74 4.64649 202.019 4.62048C202.265 4.5906 202.491 4.55483 202.696 4.51343C202.737 4.48568 202.754 4.45375 202.745 4.41885C202.893 4.43508 203.042 4.45617 203.185 4.48141C204.334 4.77585 205.224 4.77075 206.033 4.69438C206.251 4.67168 206.418 4.63559 206.64 4.60733C206.861 4.57906 206.939 4.54238 207.141 4.55306C208.747 4.64962 209.21 4.32709 210.563 4.34004C210.629 4.32744 210.67 4.30861 210.682 4.28527C210.694 4.26194 210.677 4.23486 210.632 4.20652C210.537 4.18093 210.426 4.15893 210.311 4.14253C210.195 4.12613 210.078 4.11587 209.971 4.11268C209.348 4.07129 208.798 4.08398 208.415 4.14858C208.143 4.17498 207.856 4.19602 207.554 4.21157L206.199 3.7445C207.512 3.78732 208.754 3.78704 209.896 3.74367C210.145 3.71931 210.567 3.76127 210.918 3.76925L213.498 3.8129C214.028 3.81652 214.48 3.7433 215.22 3.91398C215.22 3.91398 215.708 3.94151 215.839 3.9182C215.969 3.8949 216.547 3.74995 216.891 3.65553C217.292 3.68245 217.846 3.75509 218.095 3.73074C218.53 3.67091 218.907 3.59423 219.219 3.50205L220.777 3.63364C220.775 3.75054 220.718 3.86051 220.607 3.96189C220.486 4.05966 220.49 4.17702 220.619 4.30438C220.749 4.43173 221 4.56546 221.352 4.69465L222.891 5.37885C223.142 5.42467 223.41 5.45551 223.658 5.46719C223.906 5.47887 224.122 5.47082 224.277 5.44413C224.939 5.3649 225.681 5.30296 226.343 5.22373C227.197 5.34494 226.977 5.54072 227.598 5.71245L229.61 5.99788C229.916 6.26238 230.229 6.51575 229.296 6.60431C229.11 6.61979 229.235 6.72114 229.066 6.76279C229.791 6.96129 230.589 7.02071 231.324 7.14297C231.614 7.2309 231.856 7.32397 232.04 7.41769C232.241 7.55882 232.649 7.70298 233.175 7.81904C233.702 7.9351 234.305 8.01375 234.854 8.03801C235.775 8.11232 236.718 8.22392 237.641 8.36782C237.956 8.41786 238.28 8.45432 238.591 8.47473C238.901 8.49515 239.192 8.49906 239.443 8.48619C240.335 8.46353 241.091 8.38562 241.661 8.25752C242.224 8.14881 242.983 8.09641 243.869 8.10508C245.384 8.32014 245.69 8.64419 246.607 8.9296L245.023 8.9616C244.965 9.07287 245.07 9.21317 244.421 9.2106C243.771 9.20803 244.101 9.3145 244.311 9.42202C244.386 9.4761 244.53 9.53173 244.721 9.5795C244.912 9.62726 245.137 9.66422 245.359 9.68412L246.707 9.82174C247.185 9.87411 247.648 9.89647 248.045 9.88637C248.441 9.87627 248.756 9.8341 248.955 9.76448C249.183 9.69838 249.498 9.65367 249.881 9.63309C250.368 9.57916 250.769 9.49896 251.068 9.39552L252.972 9.54622C253.053 9.44228 253.314 9.3694 253.712 9.3399C254.11 9.31039 254.62 9.32608 255.155 9.38432L256.438 9.47682C257.865 9.57774 258.178 9.54452 258.595 9.25146L256.885 8.72799C257.133 8.59011 257.374 8.46891 257.614 8.34772C257.187 8.17526 256.619 8.01215 255.966 7.87494C255.356 7.72751 254.729 7.58472 254.087 7.44712C253.391 7.30651 252.656 7.18425 251.791 7.02574C251.64 6.97447 251.421 6.88363 251.141 6.79611C250.861 6.71107 250.568 6.6277 250.265 6.54634C250.322 6.43507 250.374 6.33493 250.263 6.20576C250.796 6.24697 251.346 6.31906 251.864 6.41551C252.382 6.51197 252.852 6.62976 253.231 6.75827C253.294 6.78106 253.373 6.80246 253.46 6.82104C253.547 6.83961 253.642 6.85493 253.737 6.86594C254.672 6.9449 255.119 7.10985 255.576 7.3121C255.884 7.41549 256.281 7.50731 256.712 7.57481C257.539 7.69212 258.348 7.8428 259.138 7.97289C259.38 8.01623 259.632 8.05191 259.882 8.07845C260.709 8.16284 261.54 8.28084 262.335 8.42645C262.594 8.46346 262.843 8.51243 263.06 8.56928C263.278 8.62613 263.458 8.68919 263.585 8.75322C263.388 8.82336 263.282 8.9119 263.273 9.0135C263.238 9.08026 263.819 9.21636 264.093 9.31501C264.367 9.41365 263.829 9.36717 263.647 9.3771C262.898 9.39618 262.759 9.43617 263.207 9.65512C263.357 9.72396 263.457 9.79285 263.5 9.85749C263.542 9.92213 263.528 9.98116 263.457 10.0309C263.35 10.2368 263.026 10.4058 262.804 10.6071C263.149 10.7397 263.726 10.8814 263.789 11.0456C263.82 11.082 263.884 11.1206 263.976 11.1586C264.069 11.1965 264.189 11.2329 264.326 11.2651C264.689 11.3346 265.019 11.4177 265.29 11.508C265.561 11.5983 265.767 11.6933 265.891 11.7857C265.931 11.824 266.029 11.8645 266.165 11.8993C266.3 11.934 266.464 11.9604 266.622 11.9731C266.811 11.9887 266.981 11.9867 267.095 11.9674C267.21 11.948 267.261 11.913 267.238 11.8693C267.242 11.7874 267.217 11.702 267.163 11.6139C267.194 11.5527 267.226 11.4915 267.101 11.3901C267.666 11.4271 268.259 11.5012 268.815 11.6045C269.372 11.7077 269.871 11.836 270.258 11.9756C270.686 12.1199 271.081 12.2715 271.556 12.4404C271.458 12.6295 271.458 12.6295 272.468 12.964L277.825 13.1271L278.923 13.3486C279.947 13.5417 280.191 13.5284 280.834 13.4286L281.267 13.3348C282.176 13.4638 283.223 13.6124 283.792 13.3706C283.976 13.5282 284.097 13.5811 284.055 13.6051C283.784 13.8376 283.312 14.0349 282.659 14.1892C282.492 14.2253 282.375 14.2803 282.181 14.3125C281.555 14.4941 281.41 14.7747 281.775 15.097C281.956 15.2396 282.22 15.3856 282.556 15.5303C282.063 15.7312 281.41 15.8976 280.615 16.0252C279.939 16.1238 279.383 16.2559 278.962 16.4177C278.585 16.5809 278.019 16.7035 277.297 16.7786C276.931 16.8105 276.664 16.8735 276.522 16.9613C276.48 17.1989 276.577 17.4533 276.811 17.7188C276.855 17.7996 276.98 17.8869 277.176 17.9738C277.372 18.0607 277.634 18.1449 277.942 18.2197C277.942 18.2197 278.09 18.2766 278.161 18.3105C278.22 18.5983 277.998 18.8519 277.51 19.0543C277.43 19.1117 277.266 19.1532 277.037 19.1742C276.807 19.1953 276.52 19.1951 276.206 19.1738C275.544 19.1395 274.925 19.1353 274.284 19.116C273.594 19.0888 272.986 19.1102 272.524 19.1782C272.062 19.2461 271.763 19.3579 271.659 19.502C271.653 19.5427 271.632 19.5818 271.599 19.6188C271.579 19.6379 271.569 19.6584 271.567 19.68L273.039 20.1516L271.374 20.3393C271.276 20.5285 272.075 20.6419 272.476 20.7823L272.228 20.8607C271.91 20.905 271.48 20.8202 271.092 20.771L270.706 20.7163L270.66 20.8053C270.42 20.9265 269.544 20.7903 269.202 20.8791C268.86 20.968 269.104 21.0683 269.616 21.1648C269.972 21.2366 270.354 21.2938 270.734 21.3322C271.114 21.3706 271.481 21.3891 271.809 21.3864C272.004 21.3769 272.166 21.3552 272.285 21.3226C272.976 21.184 273.739 21.0648 274.569 20.966C275.206 20.8772 276.003 20.8395 276.904 20.8554C277.168 20.8487 277.487 20.8697 277.805 20.9147C278.122 20.9598 278.418 21.026 278.64 21.1017L279.106 21.1142C279.106 21.1142 279.362 21.1922 279.326 21.205C279.148 21.4362 279.354 21.7189 279.914 22.0111L279.427 22.0376C278.732 22.0105 279.173 22.1866 279.069 22.2734C278.574 22.257 277.932 22.1837 277.698 22.2938L277.347 22.2858L277.485 22.3054L277.651 22.2693L278.306 22.4338C277.996 22.4615 277.771 22.4953 277.497 22.5102C277.346 22.5231 277.225 22.546 277.143 22.5774C277.061 22.6088 277.018 22.6481 277.018 22.693C277.019 22.762 276.937 22.8201 276.781 22.8617C276.625 22.9033 276.399 22.9271 276.126 22.9307C275.8 22.9322 275.613 23.0072 275.422 23.0339L276.253 23.4862C276.253 23.4862 275.84 23.4275 276.065 23.5072L276.093 23.4516L276.597 23.5648C276.959 23.6641 277.213 23.6881 277.427 23.617C277.642 23.5459 277.593 23.6405 277.696 23.6133C277.658 23.6856 277.425 23.7361 277.225 23.7794C276.994 23.8134 276.733 23.8385 276.447 23.8541C276.963 24.1722 276.987 24.1816 276.234 24.2658C275.481 24.35 275.741 24.4765 275.11 24.4945C274.48 24.5126 275.197 24.7278 275.619 24.7697C275.931 24.7973 276.25 24.8403 276.554 24.8957C276.857 24.9511 277.137 25.0176 277.375 25.0906L277.248 25.3354C277.063 25.3152 276.877 25.2888 276.697 25.2572C276.087 25.1228 275.531 24.9962 274.988 25.0743L275.247 25.2603L273.35 25.1525C273.399 25.2919 273.688 25.4507 274.156 25.5954C274.086 25.6748 274.043 25.7585 274.027 25.8457C273.995 25.9069 273.808 25.8684 273.686 25.875C273.252 25.8853 272.896 25.9267 272.649 25.9958C272.402 26.0649 272.271 26.1594 272.269 26.2711C272.22 26.3656 272.888 26.5619 273.305 26.5554C274.347 26.5743 275.474 26.6471 276.625 26.7698C277.326 26.7857 277.425 26.537 278.58 26.7068C278.603 26.8216 278.455 26.9146 278.158 26.9717C277.862 27.0288 277.434 27.0468 276.937 27.0231C277.219 27.2782 278.782 27.3447 278.851 27.6113C278.462 27.5924 278.046 27.5481 277.644 27.4827C277.242 27.4173 276.869 27.3331 276.56 27.2383C276.493 27.215 276.41 27.1934 276.317 27.1757C276.224 27.158 276.125 27.1447 276.028 27.137C275.932 27.1293 275.842 27.1274 275.766 27.1316C275.69 27.1358 275.631 27.1459 275.594 27.161C275.811 27.2574 276.049 27.3688 276.32 27.473C276.592 27.5772 276.657 27.6223 276.853 27.6442C278.313 27.8514 279.007 28.2246 280.271 28.4696C280.601 28.5165 280.642 28.6657 280.355 28.6488C280.082 28.632 279.835 28.6342 279.641 28.6552C279.448 28.6762 279.315 28.7152 279.259 28.7679C279.047 28.8293 278.783 28.8782 278.474 28.9133C279.769 29.2963 281.314 29.6347 282.963 29.8968C283.275 29.9486 283.601 29.9801 283.892 29.9869C284.813 29.9872 285.79 30.0176 286.803 30.0774C287.162 30.0937 287.494 30.0922 287.781 30.0729C288.722 30.0272 289.468 30.1273 290.151 30.4092L291.28 30.8561C291.243 30.9284 291.053 31.009 290.907 31.1197L291.789 31.3584L298.521 30.8087L299.872 31.3409L301.81 31.3113C301.958 31.3267 302.107 31.3479 302.25 31.3739C302.642 31.531 302.949 31.682 303.374 31.8319C303.799 31.9818 304.559 32.0001 305.088 32.1767C305.618 32.3534 306.149 32.3571 306.804 32.462C306.866 32.5988 306.802 32.7219 306.617 32.8236C306.557 32.9405 306.223 33.0127 306.166 33.1239C306.172 33.2364 306.048 33.3319 305.806 33.4017C305.563 33.4715 305.209 33.5135 304.776 33.5239C303.563 33.7633 302.101 33.9338 300.433 34.0302C300.286 34.0372 300.165 34.0534 300.076 34.0778C299.987 34.1021 299.933 34.1342 299.916 34.1719C299.918 34.281 299.807 34.3754 299.59 34.4479C299.374 34.5205 299.057 34.5695 298.664 34.5914C298.559 34.5958 298.48 34.6095 298.437 34.6308C298.287 34.6445 298.179 34.6708 298.121 34.7071C298.063 34.7435 298.059 34.7886 298.107 34.8381C298.156 34.8877 298.257 34.94 298.399 34.99C298.542 35.04 298.721 35.086 298.921 35.1235C299.211 35.1841 299.506 35.242 299.807 35.2971C299.79 35.3305 299.491 35.3359 299.535 35.366C299.653 35.4619 299.68 35.5519 299.615 35.6286C299.549 35.7054 299.393 35.7668 299.158 35.8082L300.767 36.5859C301.744 36.6936 302.702 36.8763 303.459 37.0993C303.46 37.1358 303.417 37.1664 303.333 37.1881C303.249 37.2097 303.128 37.2216 302.981 37.2226C302.589 37.2385 302.218 37.2695 301.795 37.2871C301.536 37.3002 301.321 37.3291 301.161 37.3721C301.002 37.4151 300.902 37.4714 300.866 37.5376L301.811 37.8269C301.508 37.8974 301.284 37.9312 301.084 37.9746C301.197 38.0655 301.392 38.1595 301.653 38.2494C301.914 38.3393 302.235 38.4226 302.59 38.4929C302.686 38.5074 302.783 38.518 302.876 38.5241C302.97 38.5301 303.057 38.5316 303.134 38.5282C303.866 38.429 304.721 38.6042 305.552 38.7699C306.384 38.9356 306.835 39.0355 307.448 39.1644L308.622 39.1817C308.919 39.2427 309.185 39.3144 309.397 39.3912C309.608 39.4679 309.761 39.5475 309.843 39.6236C309.78 39.746 309.223 39.679 308.891 39.6916C308.104 39.7678 307.069 39.7515 305.957 39.6455C305.682 39.6064 305.399 39.638 305.131 39.6417C304.553 39.657 303.997 39.6818 303.466 39.716C303.117 39.7479 302.79 39.7873 302.488 39.834C302.408 39.9898 303.676 40.1101 302.956 40.1871C303.204 40.2223 303.297 40.2713 303.425 40.2536C304.241 40.3547 305.046 40.4047 305.746 40.3978C307.088 40.3763 308.612 40.4473 310.193 40.6049C311.9 40.7683 313.537 40.8368 314.969 40.805C315.515 40.8032 316.125 40.8366 316.752 40.9028C317.493 40.9945 318.229 41.0521 318.912 41.072C319.139 41.0727 319.391 41.0883 319.648 41.1175C319.905 41.1468 320.16 41.1888 320.393 41.2403C320.373 41.2792 320.151 41.3075 320.2 41.3264C320.907 41.6179 321.194 41.9213 322.282 42.2191C323.026 42.3246 323.88 42.4458 324.367 42.3059C324.853 42.1659 324.679 42.0456 323.711 41.6872C323.921 41.6821 324.174 41.6988 324.426 41.7345C324.677 41.7703 324.912 41.8227 325.088 41.8827L325.926 42.1509L326.68 42.4072C326.614 42.5352 326.562 42.6353 326.507 42.7411C326.421 42.8533 326.516 42.99 326.778 43.1319C326.937 43.2093 327.075 43.2868 327.191 43.3636C327.663 43.6707 327.799 43.961 327.586 44.2019C327.176 44.5483 326.605 44.867 325.88 45.1543C325.115 45.4338 324.696 45.7864 324.065 46.0911C323.743 46.2298 323.352 46.3541 322.897 46.4627C322.032 46.7044 321.085 46.9343 320.218 47.1815C319.351 47.4286 318.372 47.6062 317.409 47.8099C315.975 48.0517 314.425 48.2606 312.768 48.4352C311.742 48.5883 310.689 48.7374 309.74 48.9134C308.62 49.1117 307.304 49.2541 305.824 49.337C304.518 49.4363 303.35 49.5832 302.345 49.7748C302.239 49.7956 302.156 49.8219 302.097 49.8532C301.916 50.0486 301.409 50.1863 300.652 50.2453C300.698 50.3025 300.757 50.3607 300.828 50.4196C300.933 50.4898 300.955 50.5554 300.891 50.6081C300.827 50.6607 300.68 50.698 300.469 50.7149C299.863 50.7633 299.361 50.8455 298.982 50.9579C298.843 50.986 298.757 51.0271 298.731 51.0775C298.705 51.1279 298.74 51.1861 298.833 51.2472C298.915 51.31 298.921 51.3678 298.85 51.4131C298.779 51.4585 298.635 51.4892 298.435 51.5013C297.923 51.5608 297.375 51.6086 296.794 51.6446C295.557 51.7238 294.119 51.7228 292.566 51.6418C292.401 51.6183 292.234 51.6544 292.041 51.627C290.943 51.5362 289.923 51.5221 289.105 51.5865C288.145 51.6116 287.142 51.6066 286.131 51.6184C284.669 51.6105 283.321 51.6583 282.124 51.7604C280.755 51.6617 279.986 51.8333 278.831 51.8366C277.765 51.8542 276.754 51.8964 275.808 51.963C274.284 52.0512 272.765 52.1283 271.263 52.2316C269.853 52.2808 268.556 52.3749 267.391 52.5123C266.945 52.5743 266.138 52.4777 265.834 52.6077C265.53 52.7378 264.917 52.7224 264.421 52.7656L262.858 52.8722C262.589 52.8975 262.293 52.9136 261.975 52.9201C260.522 52.9288 259.515 53.1025 258.166 53.1379L258.028 53.1184C255.633 53.3765 252.891 53.5182 249.884 53.5393C248.128 53.6185 246.208 53.6147 244.344 53.6727C243.9 53.7888 242.85 53.6457 242.292 53.7517C241.735 53.8577 240.824 53.7883 240.105 53.8057C239.386 53.8231 238.684 53.8667 237.916 53.8652C237.249 53.8657 236.685 53.913 236.277 54.0029C235.345 54.1515 234.209 54.2388 232.92 54.261C231.214 54.2996 229.601 54.3873 227.866 54.368C227.891 54.4763 227.785 54.5684 227.558 54.6349C227.331 54.7014 226.993 54.7398 226.576 54.7463C224.721 54.7876 223.039 54.8953 221.16 54.9271L220.657 54.9274L215.035 54.9895C213.52 55.0015 212.061 55.0214 210.516 55.035C209.937 54.9529 209.923 55.0943 209.523 55.0673C209.411 54.9977 209.279 54.967 209.083 55.0048L209.039 55.0882L202.624 55.1989C200.112 55.2799 197.469 55.3042 194.719 55.2716C194.067 55.2798 193.458 55.3074 192.902 55.3541C192.387 55.3711 191.85 55.3787 191.293 55.3766C190.541 55.3556 189.806 55.345 189.092 55.3449C187.212 55.3767 185.239 55.3595 183.181 55.3362C181.123 55.3128 179.564 55.3543 177.732 55.3511C176.491 55.3482 175.256 55.3342 173.972 55.3013C173.359 55.2859 172.604 55.2026 171.969 55.1722C171.334 55.1418 171.126 55.1423 171.043 55.1901C170.766 55.3241 170.072 55.2375 169.517 55.2244C168.434 55.2021 168.28 55.1564 167.986 54.8101L169.315 54.7C169.64 54.6645 170.05 54.6583 170.504 54.6819C170.958 54.7055 171.441 54.7582 171.907 54.835C172.09 54.8678 172.281 54.8938 172.47 54.9114C172.659 54.929 172.842 54.9378 173.007 54.9374C174.347 54.9186 175.669 54.8792 176.957 54.8471L177.146 54.826L177.158 54.5172C176.987 54.4868 176.811 54.4618 176.634 54.4429L170.172 54.2425C168.689 54.1933 167.15 54.0823 165.695 54.037C164.239 53.9917 163.455 53.964 162.326 53.9172C161.849 53.8906 161.363 53.8556 160.872 53.8124C160.9 53.7827 160.917 53.751 160.921 53.7178C160.947 53.6678 160.981 53.601 160.772 53.5475C160.544 53.4719 160.24 53.4073 159.919 53.3667C159.618 53.3399 159.326 53.3247 159.055 53.3217C157.745 53.2958 156.248 53.1327 154.884 52.8671L154.408 53.0444C152.359 52.9448 150.281 52.8469 148.141 52.7522C147.713 52.7264 147.263 52.6769 146.826 52.6074C146.358 52.5409 145.927 52.4021 145.434 52.3262C144.946 52.2715 144.463 52.2289 143.991 52.1991C144.119 52.1535 144.287 52.117 144.491 52.0909C144.691 52.0817 144.837 52.0532 144.908 52.0095C144.978 51.9658 144.969 51.9092 144.883 51.8479C144.73 51.7426 144.663 51.6435 144.995 51.6309C145.301 51.6069 145.521 51.5549 145.627 51.4811C145.733 51.4073 145.722 51.3148 145.595 51.2144C145.539 51.1557 145.499 51.0982 145.477 51.0424L145.339 51.0228C144.884 50.815 143.977 50.7399 143.326 50.5699C143.018 50.5206 142.7 50.4922 142.421 50.4893C141.7 50.4527 140.999 50.4368 140.254 50.3907C139.898 50.3696 139.526 50.3309 139.159 50.2772C138.635 50.2029 138.58 50.1951 138.276 49.925C138.748 49.9297 139.123 49.8894 139.336 49.8108C139.549 49.7322 139.588 49.6202 139.446 49.4938C139.056 49.2175 138.645 48.9263 136.884 48.73C137.458 48.7203 138.011 48.7011 138.54 48.6724C138.694 48.6663 138.809 48.646 138.87 48.6143C138.931 48.5826 138.935 48.541 138.882 48.4951C138.828 48.4492 138.72 48.4012 138.571 48.3574C138.422 48.3137 138.24 48.2763 138.048 48.2503C137.119 48.0941 136.148 47.9895 135.247 47.9484C134.488 47.9302 133.802 47.9404 132.915 47.9399L131.868 47.7913C131.885 47.7579 131.732 47.7122 131.771 47.6939C132.037 47.5226 132.33 47.3553 132.632 47.1712C132.15 47.0718 131.732 46.9519 131.426 46.825C131.12 46.6982 130.939 46.5696 130.904 46.4541C130.878 46.4192 130.884 46.3875 130.924 46.361C130.963 46.3346 131.033 46.3142 131.131 46.3012C131.406 46.2788 131.619 46.2361 131.752 46.1764C131.886 46.1166 131.936 46.0414 131.9 45.9565L131.086 45.6439C128.635 45.4208 126.227 45.2615 123.909 45.1688L121.816 45.0987C121.563 45.015 121.641 44.9784 121.879 44.9763C122.116 44.9742 122.785 44.9973 123.251 45.0098C123.655 45.0262 124.013 45.0154 124.291 44.9785C124.569 44.9416 124.758 44.8799 124.839 44.7992L124.136 44.4426C124.171 44.3759 124.22 44.2813 124.601 44.2876C124.861 44.2799 125.053 44.2463 125.146 44.1922C125.238 44.1382 125.225 44.0668 125.11 43.9896C125.092 43.9338 125.119 43.8829 125.188 43.8394C125.752 43.8358 126.312 43.8377 126.824 43.8208C127.062 43.8151 127.263 43.7945 127.414 43.7602C127.564 43.7259 127.66 43.6787 127.696 43.622C127.714 43.5666 127.669 43.5035 127.564 43.4378C127.46 43.3721 127.298 43.3057 127.093 43.2438C126.291 43.1673 125.558 43.1663 125.054 43.2411C124.874 43.2997 124.585 43.3317 124.225 43.3329C123.866 43.3341 123.452 43.3044 123.039 43.2478C122.566 43.1825 122.094 43.1538 121.708 43.1669C121.321 43.1799 121.046 43.2339 120.932 43.319C120.446 43.286 120.016 43.2607 119.591 43.2243C119.09 43.1784 118.616 43.1648 118.221 43.1852C117.589 43.1995 116.908 43.1911 116.193 43.1602C114.134 43.0828 112.071 43.0111 110.077 42.9789C109.549 42.9697 109.093 42.9945 108.571 42.9742C108.049 42.9539 107.636 43.0087 106.983 42.8982C106.859 42.881 106.734 42.87 106.618 42.866C106.502 42.862 106.398 42.8651 106.315 42.875C105.169 42.9625 103.825 42.9748 102.363 42.9114C100.36 42.8958 98.2829 42.8519 96.277 42.8419C95.6887 42.8505 95.1327 42.8735 94.6149 42.9106C94.2208 42.9331 93.808 42.9483 93.3788 42.9562C93.0498 42.9632 92.7351 42.9425 92.7907 43.0638C92.8462 43.1852 92.3532 43.1092 92.069 43.0868C91.0928 43.028 90.095 42.9483 89.0869 42.8487C88.0935 42.7405 87.1202 42.6775 86.2252 42.6636C85.5788 42.6554 84.9122 42.6863 84.0811 42.5205C84.1127 42.4593 84.1444 42.3981 84.3253 42.3342C83.6475 42.1584 82.8742 42.0071 82.0693 41.8929C81.2644 41.7787 80.4511 41.7048 79.6966 41.6773L78.6561 41.3446C78.4 41.3055 78.1384 41.277 77.8875 41.2609C77.6365 41.2448 77.4013 41.2414 77.1963 41.2508C77.0378 41.2557 76.8447 41.2433 76.6524 41.216C76.46 41.1887 76.2814 41.1483 76.1493 41.1023C75.9517 41.0437 75.7104 40.9931 75.4555 40.957C75.2007 40.9208 74.9436 40.9006 74.7166 40.8989C74.0017 40.8628 73.2386 40.7792 72.5054 40.6568C72.3151 40.5851 72.1959 40.5109 72.1624 40.4436C72.129 40.3762 72.1828 40.3186 72.3171 40.2777C72.5337 40.2056 72.6553 40.1137 72.6746 40.0077C72.6938 39.9016 72.6104 39.7835 72.4292 39.6606C72.3365 39.5852 72.3055 39.5137 72.3381 39.4506C72.3708 39.3875 72.4664 39.334 72.6192 39.2934C73.1895 39.1056 73.0369 39.0004 72.1038 38.6888C71.9522 38.6369 71.7695 38.5883 71.5672 38.5462C71.365 38.5042 71.1477 38.4695 70.9289 38.4444C70.4157 38.3937 69.9096 38.3559 69.4197 38.3318C69.1442 38.2927 68.8617 38.3242 68.5442 38.3091C66.9569 38.2331 66.7245 38.1105 66.2105 37.8465L65.8358 37.656C65.141 37.5016 64.3811 37.3735 63.6109 37.2807C62.8406 37.1879 62.0792 37.1328 61.3815 37.1194C61.1042 37.1184 60.7854 37.092 60.4739 37.0443C59.4603 36.8985 58.4339 36.7976 57.4625 36.7483C56.8572 36.7206 56.2047 36.6488 55.5834 36.5415C54.9622 36.4343 54.3984 36.2962 53.9601 36.1438C53.5663 36.0065 53.0511 35.8833 52.4862 35.7913C51.825 35.6975 51.7637 35.5873 52.133 35.5023C52.5023 35.4174 53.1207 35.3081 53.6697 35.2187C53.8607 35.1884 53.979 35.139 54.0116 35.0762C54.0441 35.0133 53.9895 34.9394 53.8538 34.8627C53.7667 34.7314 53.7516 34.6068 53.8089 34.492C53.8395 34.4443 53.8184 34.3896 53.7469 34.3315C53.6755 34.2735 53.5554 34.2135 53.3948 34.1557C53.2341 34.0978 53.0367 34.0433 52.8157 33.996C52.5947 33.9486 52.3554 33.9095 52.1138 33.8812C51.0944 33.7365 50.1025 33.5958 49.0629 33.49C48.6272 33.4402 48.192 33.3784 47.7679 33.3063C46.8999 33.1277 45.9712 32.9797 45.0358 32.8707C44.5918 32.822 44.1578 32.7368 43.8276 32.6336C42.7862 32.3555 41.8266 32.0631 40.9662 31.7617C40.7588 31.6682 40.4874 31.577 40.1691 31.4938C39.8508 31.4106 39.4924 31.3372 39.1165 31.2782C38.8134 31.2352 38.5667 31.1405 38.3331 31.0775C38.1633 30.9316 38.1452 30.7966 38.2804 30.6852C38.4156 30.5738 38.6997 30.4897 39.1061 30.4407C39.4914 30.3819 39.8519 30.3136 40.185 30.2415C40.5865 30.1831 41.0638 30.1481 41.5992 30.1376C42.2333 30.1063 42.7022 30.0167 42.9447 29.8806C41.2089 29.6343 39.5582 29.2806 38.0368 29.3633L36.8807 29.1395C36.9268 29.0505 36.9671 28.9726 37.0045 28.9003C37.2794 28.7686 37.3653 28.6026 37.2548 28.4163C37.1637 28.3261 37.172 28.2441 37.2786 28.1785C37.3853 28.1129 37.5866 28.066 37.8622 28.0426C39.4947 27.8025 41.3825 27.6404 42.9134 27.368C43.3934 27.3169 43.9553 27.2936 44.5755 27.2993C45.1755 27.2829 45.1504 27.1599 44.4599 27.0082C44.0724 26.9289 43.6774 26.8529 43.2764 26.7805C41.5082 26.7684 40.7878 27.132 38.77 27.0308L37.8347 26.5517C37.5818 26.5443 37.3363 26.5414 37.0999 26.543L33.7165 26.7376C33.4347 26.7474 33.2153 26.7807 33.0833 26.8337C32.9513 26.8868 32.9119 26.9575 32.9697 27.0378C32.9926 27.136 32.946 27.2261 32.8316 27.3048C32.7578 27.3599 32.805 27.4332 32.9628 27.5086C33.3186 27.6785 32.8621 27.7033 32.5739 27.746C32.5002 27.7502 32.4152 27.7497 32.3239 27.7447C32.2326 27.7396 32.1368 27.7301 32.0419 27.7167C31.9471 27.7032 31.8552 27.6861 31.7715 27.6663C31.6878 27.6465 31.6141 27.6244 31.5545 27.6013C31.0466 27.4397 30.6024 27.2691 30.1032 27.0908C30.4576 26.9201 30.0406 26.64 30.5936 26.4856C30.6555 26.4547 30.6802 26.4171 30.6664 26.3751C30.6525 26.3331 30.6003 26.2875 30.513 26.2412C30.2878 26.1217 30.1805 26.0051 30.202 25.9033C30.2235 25.8015 30.373 25.7181 30.6354 25.6614L30.6671 25.6002C29.975 25.3945 30.1584 25.2115 29.8865 24.9938L29.2207 24.8515C27.5643 24.5089 27.5614 24.5145 26.1353 24.5271C25.8478 24.3967 26.2131 24.3769 26.4869 24.362L28.7807 24.2157C30.2804 24.118 31.8237 24.0504 33.4989 24.0134C35.1742 23.9765 37.0419 23.8533 38.7735 23.7647C38.8611 23.7578 38.9281 23.7442 38.9688 23.7251C39.0096 23.7059 39.023 23.6818 39.0079 23.6546C38.9391 23.6252 38.849 23.5969 38.7443 23.5717C38.6396 23.5465 38.5229 23.5251 38.403 23.509C37.8519 23.4308 37.2865 23.3804 36.6993 23.315L35.6046 23.2015L35.2678 23.0522C35.0486 22.9613 34.8989 22.8505 34.6073 22.7852C34.367 22.7366 34.1062 22.6996 33.852 22.6782C33.5978 22.6569 33.3595 22.6519 33.1619 22.6637C32.6142 22.6935 32.1186 22.7366 31.5956 22.7759C31.0725 22.8151 30.7843 22.8578 30.3307 22.877C29.4092 22.8858 28.5186 22.9089 27.6628 22.9463C26.942 23.0348 26.2752 23.1397 25.6668 23.2603C25.2873 23.3079 24.9323 23.365 24.2842 23.3029C23.9768 23.2466 23.7116 23.1726 23.5357 23.0941C23.3597 23.0155 23.2844 22.9376 23.3232 22.8739C23.3579 22.824 23.4564 22.7846 23.6092 22.7592C23.762 22.7339 23.9642 22.7235 24.1965 22.7291C24.8471 22.7199 25.4486 22.6891 25.9891 22.6371C26.7414 22.543 27.6571 22.5024 28.6829 22.5178C29.0308 22.5313 29.264 22.4808 29.5683 22.4643C29.8726 22.4477 30.1304 22.4067 30.4696 22.4369C31.5236 22.5148 32.0289 22.3954 32.6606 22.3179C32.8744 22.2835 33.0068 22.2279 33.0434 22.1572C33.08 22.0865 33.0192 22.0035 32.8677 21.9173C32.5762 21.7456 32.2196 21.5729 31.8035 21.402C31.5893 21.3179 31.3149 21.2382 31.0018 21.1689C30.6888 21.0996 30.3455 21.0426 29.9989 21.0025C29.7915 20.8974 29.6809 20.794 29.677 20.7017C29.6731 20.6093 29.7762 20.5311 29.9767 20.4739C30.4878 20.3434 30.941 20.2106 32.0862 20.2835C32.6247 20.3114 33.1314 20.3167 33.5863 20.2993C34.5953 20.2755 35.7591 20.3277 36.9682 20.4508C37.281 20.4824 37.5885 20.5039 37.8815 20.5147C39.9717 20.5904 41.9632 20.6282 43.9605 20.6548C45.0186 20.6676 46.0853 20.6638 47.1898 20.7011C49.7801 20.782 52.138 20.7404 54.6382 20.7668C55.9476 20.7803 57.1197 20.7258 58.0928 20.6061C58.2823 20.566 58.4451 20.5191 58.5792 20.4661C57.9343 20.327 57.226 20.2169 56.522 20.1462C55.818 20.0756 55.142 20.0469 54.5587 20.0627C54.2381 20.1017 53.8236 20.1088 53.3616 20.0833C52.8996 20.0578 52.4082 20.0007 51.9421 19.9183L53.2971 19.8718C54.1956 19.85 55.1159 19.8432 55.9897 19.812C57.378 19.7581 58.6646 19.672 60.1022 19.6371C61.2629 19.6051 62.3015 19.5231 63.1855 19.3939C63.8241 19.2996 64.5535 19.2328 65.3588 19.1947C65.9312 19.1744 65.9312 19.1744 66.2971 18.9815C66.0068 18.8567 65.6314 18.8392 65.2777 18.8368C63.1575 18.7583 61.1398 18.7445 59.2657 18.7958C58.3201 18.8004 57.4813 18.8533 56.7894 18.952C56.62 18.9937 56.1865 18.9739 55.8386 18.9604C54.7481 18.9398 53.7057 18.9458 52.7241 18.9783C51.367 19.0324 49.8555 19.0195 48.2484 18.9403C47.9437 18.8433 48.2944 18.8513 48.3117 18.8179C49.5564 18.7556 50.7765 18.6839 52.0459 18.6312C52.3929 18.6124 52.7639 18.6031 53.1546 18.6034C54.6131 18.6361 55.8285 18.5455 56.6305 18.3442C56.6708 18.2663 57.1984 18.2755 57.4316 18.225C57.5463 18.1813 57.6227 18.1298 57.6585 18.0721C57.3188 17.9283 56.9348 17.9276 56.6391 17.9274C55.7811 17.9434 54.9558 17.9739 54.1669 18.0185C53.4337 18.061 52.622 18.0723 51.7539 18.0523C51.1132 18.033 50.5655 18.0628 49.919 18.0546C49.5684 18.0375 49.2054 18.0101 48.8375 17.9728C49.2471 17.8726 49.8039 17.811 50.4688 17.7923C50.973 17.7324 51.6033 17.7144 51.6839 17.5586C51.4458 17.4472 51.1805 17.4454 50.9675 17.4569C50.5241 17.4565 50.0959 17.4635 49.685 17.478C48.8137 17.5096 47.8703 17.5101 46.8747 17.4793C46.3504 17.4678 45.8529 17.4712 45.3906 17.4896C44.3428 17.5141 43.3386 17.5687 42.3793 17.5938C40.4141 17.6195 38.6217 17.7115 36.7334 17.76C36.3131 17.772 35.9364 17.8141 35.3825 17.7415C34.8286 17.6688 34.8039 17.6594 34.7385 17.6142C34.5835 17.539 34.5365 17.466 34.6073 17.4105C34.7172 17.3586 34.9312 17.3298 35.2113 17.329C36.8993 17.2465 38.5004 17.1306 40.0045 16.982C40.6664 16.9523 41.2464 16.8916 41.7241 16.8021C42.103 16.7404 42.5525 16.6996 43.0585 16.6809C43.7944 16.6363 44.5615 16.6037 45.3568 16.5831C45.7268 16.572 46.0415 16.539 46.2822 16.486C46.523 16.4329 46.6849 16.361 46.7585 16.2744L45.7836 15.9867C45.6304 15.9733 45.4784 15.9617 45.3283 15.952L37.236 16.1592L36.4346 16.1649C35.5562 16.1477 35.3415 16.1053 34.5084 15.7721C36.4098 15.6937 37.9046 15.4652 38.8437 15.1093C38.618 15.0711 38.3866 15.0382 38.1549 15.0116C36.6353 14.9274 35.1989 14.9051 33.9009 14.9454C33.1298 14.9494 32.337 14.9384 31.5413 14.933C31.774 14.7689 32.6655 14.8178 33.2466 14.7808C34.6349 14.723 35.8626 14.6034 36.8903 14.426C37.2447 14.3569 37.688 14.3127 38.2 14.2954C38.7124 14.2895 39.1404 14.2476 39.4468 14.1734C39.7531 14.0993 39.9286 13.9951 39.9578 13.87C40.0061 13.7567 40.1102 13.6515 40.2683 13.5558C39.9885 13.42 39.5441 13.29 39.0185 13.1901C38.493 13.0902 37.9225 13.0274 37.414 13.0133C36.3285 12.9574 35.2026 12.8659 34.065 12.7411C33.4983 12.6782 32.9427 12.642 32.4341 12.6351C31.9856 12.6297 31.4758 12.5843 30.9825 12.5056C30.4892 12.427 30.0395 12.3195 29.7019 12.1996C29.2463 12.0513 28.821 11.9014 28.3958 11.7514C27.9705 11.6015 27.4771 11.4121 26.9807 11.2281C26.5431 11.1994 26.1169 11.1809 25.708 11.1729C25.3899 11.1797 25.0186 11.1596 24.6382 11.1152C24.2577 11.0707 23.8837 11.0036 23.5605 10.9219C23.7501 10.8413 23.9644 10.7702 24.1901 10.6768C23.8803 10.5535 23.6556 10.4278 23.5298 10.3073C23.404 10.1868 23.3797 10.074 23.4585 9.97582C23.5045 9.8868 23.1677 9.73747 23.0513 9.61944C22.9014 9.51767 22.8733 9.42271 22.9705 9.34699C23.0677 9.27127 23.2858 9.21833 23.5961 9.19511C23.981 9.15226 24.2942 9.08773 24.5229 9.00416C24.5986 8.98247 24.6371 8.95276 24.635 8.91775C24.6328 8.88274 24.5901 8.84355 24.5106 8.80377C24.4312 8.76398 24.3176 8.72486 24.1802 8.68999C24.0428 8.65512 23.8861 8.62562 23.7243 8.60417C23.2287 8.54337 22.7365 8.50396 22.276 8.48821C21.4826 8.45922 20.7231 8.44102 19.9974 8.43359C19.1949 8.42241 18.302 8.35339 17.4096 8.23355C16.6106 8.12016 15.8942 8.01849 15.5035 7.80181C15.1128 7.58512 14.4882 7.59203 14.0078 7.43428C14.2777 7.29209 14.7572 7.19329 15.3982 7.14786C15.8176 7.13164 16.1677 7.08908 16.426 7.0229C16.6843 6.95671 16.8452 6.86837 16.8982 6.76355L15.44 6.32369C14.2754 6.11662 13.631 6.276 12.3727 6.19297L13.6692 6.0306C13.6953 6.01455 13.705 5.9957 13.698 5.97496C13.5721 5.64656 13.3718 5.57633 12.0465 5.39421L11.3026 5.28864L10.1252 5.16336C9.93665 5.09606 9.80626 5.02587 9.747 4.95982C9.68774 4.89377 9.70172 4.83417 9.78756 4.78699C9.96006 4.70763 10.0125 4.60623 9.94008 4.49212C9.82589 4.41652 9.81647 4.34684 9.91344 4.29515C10.0104 4.24346 10.2076 4.21302 10.4709 4.20914C10.6811 4.20313 10.6967 4.11576 10.811 4.06629C10.9246 3.99811 11.119 3.94579 11.3809 3.91289C11.6429 3.88 11.9663 3.86729 12.3291 3.87564C13.3988 3.88247 14.4038 3.85688 15.326 3.79931L15.1607 3.77585C16.122 3.82639 17.0207 3.83252 17.8131 3.79394C18.6071 3.74539 19.6261 3.77653 20.4695 3.74693C21.1561 3.75372 21.6789 3.68652 21.9268 3.55959C22.167 3.4384 23.0396 3.46668 23.7078 3.48985C24.1036 3.50484 24.4862 3.51119 24.8514 3.50883C25.3416 3.4814 25.9546 3.50726 26.588 3.58209C26.7781 3.60509 26.9653 3.61726 27.1317 3.61744C28.742 3.64889 30.3494 3.6859 31.9379 3.70232C32.3046 3.69287 32.7346 3.71452 33.1773 3.76474C33.3634 3.78655 33.5446 3.79558 33.6964 3.79062C36.2064 3.74075 39.0388 3.868 41.4995 3.79918C41.7978 3.78292 42.128 3.77955 42.4808 3.78913C43.2735 3.82956 43.9618 3.80354 44.4414 3.71503C44.7001 3.66795 45.0319 3.64201 45.4154 3.63886C45.7989 3.6357 46.2258 3.65541 46.669 3.69672C47.4063 3.75142 48.0878 3.75735 48.6415 3.71389C49.7211 3.67374 50.8565 3.65723 52.0386 3.66449C52.4008 3.67152 52.7192 3.65591 52.9692 3.61889C53.2191 3.58186 53.3938 3.52441 53.4798 3.45098C53.1895 3.32617 52.8721 3.31099 52.5707 3.32196C51.4024 3.29352 50.237 3.25951 49.0905 3.24611C48.0643 3.20783 47.0797 3.19612 46.1511 3.21117C45.6901 3.22815 45.1147 3.18944 44.5507 3.10348C43.8594 2.99462 43.1474 2.94054 42.5587 2.95217C42.1222 2.95506 41.6615 2.94568 41.1832 2.92418C40.877 2.89825 40.5632 2.85371 40.274 2.79515C40.1592 2.76972 40.0342 2.74833 39.9072 2.73236C39.7801 2.71639 39.6537 2.7062 39.536 2.70242C39.4183 2.69864 39.3118 2.70136 39.2235 2.71041C39.1352 2.71946 39.0669 2.73465 39.0231 2.75498C38.5802 2.92504 37.59 2.83826 36.742 2.81945C35.4713 2.53162 34.5256 2.70198 33.338 2.53941C33.2441 2.52864 33.1515 2.5221 33.066 2.52024C32.9806 2.51838 32.904 2.52122 32.8408 2.52857C30.5425 2.62642 27.8639 2.54487 25.4509 2.57866C25.1847 2.5836 24.8758 2.56667 24.5593 2.52978C22.4907 2.28564 20.5018 2.21632 18.9815 2.3354C18.7965 2.34612 18.5861 2.34658 18.3598 2.33675C17.3203 2.23972 16.3263 2.20103 15.4607 2.22392C14.1041 2.21653 12.7997 2.22252 11.4213 2.20009C10.4712 2.16818 9.63761 2.20228 9.00418 2.29898C8.98403 2.33793 8.56209 2.29596 8.23888 2.2919C8.05299 2.19385 7.89183 2.1053 7.70019 2.01838C7.52888 1.91085 7.27225 1.80203 6.94778 1.69932C6.62332 1.5966 6.23863 1.50239 5.81963 1.42304C5.10328 1.32138 5.03163 1.17386 5.5329 1.11958C6.82491 0.940021 8.44953 0.866527 10.2874 0.904497C11.8237 0.907532 13.3876 0.914484 14.9457 0.932556C15.8545 0.948059 16.8125 0.982497 17.6966 0.988529C17.995 1.00178 18.3014 1.0213 18.6129 1.04689C18.995 1.084 19.366 1.10421 19.7059 1.10646C20.7974 1.07521 22.0154 1.10243 23.302 1.18682C23.7733 1.20522 24.2258 1.21143 24.6529 1.20534C25.6631 1.18243 26.7584 1.19929 27.9097 1.25546C28.6252 1.28714 29.319 1.30371 29.9839 1.30498C30.2187 1.30844 30.4099 1.28183 30.6361 1.30198C32.6268 1.51283 34.0364 1.36054 35.8281 1.44161C36.6989 1.46422 37.5308 1.46429 38.3123 1.44181C39.8372 1.4429 41.4047 1.46601 43.0084 1.51106C45.129 1.58508 47.0942 1.5594 49.119 1.58996C49.5188 1.59638 49.9048 1.59529 50.2742 1.58668C52.0711 1.5298 54.0229 1.54186 56.0818 1.62257C56.5493 1.63423 56.9692 1.61997 57.3152 1.5807C57.6612 1.54143 57.9259 1.47799 58.0926 1.39434C58.1631 1.33693 58.1174 1.26237 57.9643 1.18503C57.7101 1.08626 57.4232 0.989494 57.1081 0.896312L45.647 0.583637C45.1656 0.567308 44.6962 0.558518 44.2411 0.557303C42.9025 0.554584 41.5228 0.53026 40.1087 0.48445C38.7114 0.441421 37.3766 0.449059 36.0228 0.436104C35.6241 0.431765 35.2148 0.421524 34.7966 0.405414C31.9701 0.277912 29.2139 0.200034 26.5475 0.172342C25.4257 0.168412 24.2139 0.109897 23.0703 0.0909297C21.9267 0.0719624 20.3628 0.0650189 19.0062 0.057626L14.8061 0.0587616C13.98 0.0549885 13.1756 0.066248 12.3741 0.0719468C11.4016 -0.334815 11.0664 -0.430156 9.76857 -0.608365C9.32457 -0.674101 8.87295 -0.713332 8.46666 -0.721459C7.17833 -0.689304 5.56181 -0.823159 4.34008 -0.805437C3.60288 -0.814178 2.97733 -0.768991 2.52748 -0.674501C2.13697 -0.600344 1.69042 -0.541665 1.19472 -0.49935C-0.163176 -0.847326 -0.282846 -1.07333 0.738601 -1.16127C1.01535 -1.18172 1.39654 -1.17539 1.59638 -1.2187C1.71105 -1.24507 1.8677 -1.26015 2.05384 -1.26276C2.23998 -1.26536 2.45046 -1.25543 2.66879 -1.23372C3.35785 -1.17678 4.00369 -1.16338 4.54152 -1.19489C5.04768 -1.23659 5.66811 -1.23492 6.34302 -1.19005C6.83896 -1.11967 7.27486 -1.21905 7.70376 -1.24776C8.13265 -1.27647 8.48462 -1.32805 9.1545 -1.2509C9.27717 -1.23554 9.39895 -1.22632 9.51051 -1.22394C9.62207 -1.22157 9.72043 -1.2261 9.79806 -1.2372C10.5175 -1.28689 11.3761 -1.28167 12.304 -1.22197C13.7272 -1.16322 15.0625 -1.16102 16.2636 -1.21544C16.9826 -1.26305 17.5956 -1.34749 18.0787 -1.46546C18.2104 -1.50492 18.4059 -1.52858 18.6466 -1.53417C19.855 -1.50956 21.1672 -1.41692 22.4985 -1.26224C23 -1.20026 23.5009 -1.15123 23.9904 -1.1162C24.9965 -1.03839 25.9696 -0.994787 26.8809 -0.986686C28.205 -0.985401 29.5837 -0.955462 31.0046 -0.89714C31.8815 -0.864668 32.7264 -0.852682 33.5294 -0.861316C34.3547 -0.865384 35.2359 -0.840614 36.153 -0.787578C37.0651 -0.744361 37.8688 -0.769262 38.4673 -0.859269C38.6644 -0.90777 38.8232 -0.965365 38.9406 -1.03098C37.6053 -1.24448 36.2242 -1.35299 35.0755 -1.33464C34.6392 -1.34879 34.2769 -1.33451 33.8172 -1.41767L33.8028 -1.38985C33.7113 -1.3718 33.5733 -1.36754 33.415 -1.37789C33.2567 -1.38824 33.0893 -1.41246 32.9446 -1.44595C32.9993 -1.55166 33.0511 -1.6518 33.0885 -1.72413C33.9637 -1.71137 34.8135 -1.7124 35.6335 -1.72724C36.3248 -1.74857 37.2632 -1.56165 37.8615 -1.63202C39.0285 -1.54403 39.7716 -1.66552 40.8181 -1.63046C41.8647 -1.59541 43.0174 -1.4796 44.0639 -1.44455C44.9771 -1.42531 45.8638 -1.42113 46.7191 -1.43202C47.0143 -1.44731 47.3546 -1.44373 47.7192 -1.42148C48.2316 -1.37963 48.7083 -1.37261 49.0945 -1.40125C49.4807 -1.42988 49.7607 -1.49301 49.9027 -1.58339C49.769 -1.66805 49.589 -1.77721 49.3813 -1.89029C49.7633 -1.98321 50.3436 -2.02233 51.0359 -2.00184L52.0143 -2.00633C52.2735 -2.00388 52.4717 -2.029 52.5678 -2.07649C52.6639 -2.12399 52.6507 -2.19022 52.5307 -2.26149C50.6757 -2.62031 50.6074 -2.65986 49.2459 -2.42907L47.4381 -2.53632L47.4686 -2.53796ZM71.9197 -1.55232L71.7819 -1.57187L71.9197 -1.55232ZM297.199 36.623L297.167 36.6842L297.202 36.6174L297.505 36.6604L297.525 36.6215L297.199 36.623ZM253.196 9.799C252.768 9.73223 252.335 9.67085 251.901 9.61522C251.787 9.6066 251.681 9.60465 251.591 9.60954C251.501 9.61444 251.43 9.62603 251.384 9.64333C251.349 9.71009 251.591 9.75641 251.812 9.78769C252.09 9.8298 252.374 9.85655 252.634 9.8652C252.895 9.87384 253.123 9.86408 253.295 9.83689L253.544 9.81253L253.196 9.799ZM32.553 26.0709C32.835 26.0821 33.1025 26.084 33.3488 26.0763C34.4414 26.0224 35.4874 25.9439 36.6076 25.8938C38.0209 25.7668 39.645 25.715 41.4188 25.7405C42.1118 25.753 42.6973 25.7118 43.1069 25.6218C43.3521 25.5735 43.6685 25.5452 44.037 25.5388L48.7265 25.3921C49.0163 25.3617 49.267 25.319 49.4724 25.2651C49.0591 25.2064 48.7836 25.1673 48.6183 25.1439C48.2753 25.1373 47.9805 25.1551 47.7634 25.1957C47.5302 25.2645 47.1361 25.2917 46.6593 25.2719C46.1779 25.2556 45.7085 25.2468 45.2534 25.2456C44.3939 25.249 43.5286 25.2636 42.6663 25.2726C42.3308 25.4639 41.3406 25.3771 40.4926 25.3583L39.8376 25.3668C37.6963 25.466 35.6509 25.6024 33.7113 25.7754C33.3365 25.8047 33.0135 25.8514 32.7524 25.9141C32.6541 25.9629 32.6226 26.0239 32.6604 26.0921L32.5226 26.0725L32.553 26.0709ZM128.172 44.3585C128.692 44.3715 129.233 44.3983 129.787 44.4384C130.214 44.4793 130.631 44.5042 131.021 44.5119C133.205 44.5548 135.481 44.6538 137.818 44.8077C138.123 44.831 138.417 44.8424 138.688 44.8415L140.601 44.8025C141.203 44.7805 141.215 44.7583 140.776 44.4631C140.412 44.4058 140.044 44.3535 139.674 44.3067C139.454 44.2754 139.096 44.2246 139.012 44.2724C138.501 44.4029 137.568 44.3184 136.784 44.2907C134.514 44.2194 132.173 44.1141 129.881 44.0277C129.397 44.0066 128.927 43.996 128.478 43.9958C128.199 43.9914 127.945 43.9997 127.726 44.0205C127.662 44.0226 127.609 44.0288 127.569 44.0386C127.529 44.0484 127.505 44.0617 127.496 44.0774C127.488 44.0932 127.497 44.1112 127.522 44.1302C127.546 44.1491 127.587 44.1686 127.64 44.1874C127.827 44.2531 128.044 44.316 128.283 44.3741L128.172 44.3585ZM144.801 1.51677L147.037 1.48178C147.305 1.47802 147.533 1.43863 147.82 1.45548C149.351 1.50887 150.768 1.494 152.012 1.4115C152.436 1.37783 152.931 1.3711 153.472 1.39167C155.126 1.45264 156.686 1.45515 158.111 1.39912C159.032 1.38788 159.893 1.35012 160.683 1.2864C160.744 1.2716 160.782 1.25152 160.794 1.22752C160.807 1.20352 160.793 1.17616 160.755 1.14731C160.745 1.12908 160.718 1.10947 160.676 1.08984C160.634 1.0702 160.577 1.051 160.51 1.03356C160.443 1.01613 160.368 1.00087 160.288 0.988832C160.209 0.976795 160.128 0.968263 160.051 0.963837C159.054 0.877586 158.107 0.847537 157.287 0.876131C156.528 0.910346 155.71 0.920358 154.847 0.90601C154.021 0.902237 153.46 1.0138 152.439 0.928673C152.008 0.900642 151.627 0.909869 151.361 0.954812C150.827 1.02931 150.081 1.03345 149.255 0.966505C148.762 0.932625 148.29 0.918096 147.858 0.923471C146.81 0.947963 145.809 0.996965 144.838 1.04431C144.532 1.05527 144.204 1.05678 143.86 1.04881L138.998 0.9561C137.83 0.92766 136.665 0.893654 135.518 0.880251C134.581 0.851148 133.708 0.860264 132.931 0.907273C132.103 0.956685 131.2 0.976745 130.239 0.967074C128.746 0.994113 127.262 1.00446 125.637 1.00082C124.601 1.00306 123.54 0.995824 122.457 0.973551C121.91 0.944885 121.445 0.968229 121.152 1.03909C120.974 1.09743 120.555 1.0499 120.207 1.03636C118.351 0.90587 116.611 0.87495 115.108 0.945757C114.916 0.957295 114.705 0.961472 114.48 0.958216C113.032 0.955785 111.532 0.939969 110.142 0.939794C109.776 0.945295 109.432 0.960391 109.113 0.984889C109.147 1.02486 109.245 1.06818 109.385 1.10586C109.525 1.14355 109.697 1.17271 109.866 1.1873C111.181 1.29896 112.45 1.35795 113.621 1.36179C115.569 1.34756 117.61 1.37955 119.723 1.45739C121.362 1.53586 122.856 1.51934 124.095 1.40905C125.064 1.32675 126.323 1.35771 127.658 1.49662C128.229 1.56297 128.784 1.58949 129.245 1.57258C129.69 1.5504 130.2 1.55578 130.745 1.5884C131.896 1.65044 133.002 1.67922 134.043 1.67417C135.06 1.65133 136.009 1.58895 137.054 1.57002C138.099 1.55109 139.691 1.56194 140.979 1.52978C142.267 1.49763 143.541 1.49329 144.801 1.51677ZM52.1414 -1.73747C52.2594 -1.56545 52.6773 -1.45838 53.1267 -1.41251C54.6763 -1.20883 56.2083 -1.12216 57.4654 -1.16704C58.1445 -1.22964 59.0499 -1.20554 60.0035 -1.09948C61.1139 -0.989228 62.1518 -0.970943 62.9342 -1.04785C63.1259 -1.06129 63.2727 -1.0897 63.3615 -1.13054C63.3787 -1.16392 63.4104 -1.22512 63.4161 -1.23625C63.3339 -1.26447 63.2331 -1.29061 63.1215 -1.31267C63.0098 -1.33473 62.8903 -1.35211 62.7722 -1.36347L57.6394 -1.56039L56.7449 -1.60372C55.1112 -1.71725 53.5544 -1.76247 52.1414 -1.73747ZM62.2376 0.985271C63.0387 1.26617 63.0415 1.2606 63.4519 1.32481C65.4318 1.59154 67.4104 1.73552 69.1522 1.73963C69.5394 1.73881 69.8679 1.7117 70.11 1.66056C70.2346 1.65363 70.3139 1.63161 70.3306 1.5993C70.3473 1.56699 70.3001 1.52702 70.1992 1.48809L69.5622 1.29019C68.4053 1.20452 67.2651 1.13645 66.1483 1.08639C64.848 1.02727 63.6957 1.02498 62.3478 1.0009L62.2376 0.985271ZM128.076 43.1147C128.823 43.5013 128.826 43.4957 130.075 43.5954C130.946 43.6661 131.791 43.7076 132.585 43.7186C133.554 43.7308 134.549 43.7525 135.515 43.7702C135.751 43.7826 135.952 43.7723 136.077 43.7416C136.202 43.7108 136.243 43.6616 136.193 43.6037C136.066 43.5407 135.868 43.4799 135.63 43.4309C135.392 43.382 135.129 43.3479 134.883 43.3342L134.356 43.325C133.715 43.3057 133.05 43.277 132.431 43.2728C132.029 43.2888 131.564 43.2764 131.071 43.2366C130.579 43.1967 130.073 43.1305 129.592 43.0431L128.076 43.1147ZM66.2236 -1.23198C66.4229 -1.16503 66.6483 -1.1009 66.8938 -1.04131C67.8445 -0.876142 68.8507 -0.782329 69.7152 -0.77827C70.124 -0.768037 70.4978 -0.80457 70.9139 -0.751482C71.6603 -0.680544 72.3836 -0.642756 73.0449 -0.640165C73.0449 -0.640165 73.2303 -0.655655 73.2912 -0.658961L73.4178 -0.903757C73.1048 -0.960467 72.7783 -1.0068 72.4535 -1.04061C71.3633 -1.10574 70.2921 -1.15027 69.2238 -1.20036C68.1554 -1.25045 67.7829 -1.27346 67.0842 -1.29497C66.7726 -1.28315 66.4843 -1.26205 66.2236 -1.23198ZM42.616 29.201L44.0426 29.702C44.5043 29.7456 44.9355 29.7535 45.2708 29.7245C45.6061 29.6955 45.827 29.6313 45.9 29.5416C46.0175 29.4996 46.0292 29.4375 45.9328 29.3681C45.8363 29.2987 45.6391 29.2276 45.3826 29.1696C45.1357 29.1008 44.8539 29.0392 44.5545 28.9885C44.2552 28.9378 43.9447 28.8991 43.6424 28.8748L42.616 29.201ZM54.494 26.7063C53.5609 26.6213 52.6684 26.5866 51.8848 26.6047C51.3911 26.6544 50.7221 26.6386 50.015 26.5603C48.7292 26.4045 47.4896 26.3613 46.5579 26.44C46.5579 26.44 46.5233 26.5068 46.3654 26.5261C46.2075 26.5455 46.8338 26.5926 46.9716 26.6122C47.9819 26.66 48.9981 26.6967 49.8764 26.7139C50.4217 26.7131 50.9986 26.7289 51.5969 26.761C52.4203 26.8104 53.2011 26.8264 53.9088 26.8084C53.9088 26.8084 54.1827 26.7935 54.4911 26.7118L54.494 26.7063ZM154.143 0.609018C153.697 0.514654 153.214 0.437961 152.729 0.384697C152.244 0.331433 151.771 0.302981 151.344 0.301467C151.018 0.296543 150.753 0.321456 150.593 0.372271C150.433 0.423084 150.386 0.496897 150.46 0.582036C150.79 0.628957 151.231 0.691516 151.479 0.726707C152.339 0.723264 153.072 0.678016 154.143 0.609018ZM237.57 8.56089C237.213 8.48493 236.819 8.42685 236.433 8.39329C236.048 8.35973 235.687 8.35204 235.391 8.37109C235.239 8.37936 235.342 8.46568 235.316 8.51575C235.3 8.5271 235.3 8.54122 235.317 8.55663C235.334 8.57203 235.368 8.58817 235.415 8.60333C235.461 8.61849 235.519 8.63212 235.582 8.6428C235.645 8.65347 235.71 8.6608 235.772 8.66401C236.16 8.69674 236.526 8.70648 236.838 8.69237C237.15 8.67826 237.397 8.64074 237.559 8.58315L237.57 8.56089ZM243.16 9.64679C243.105 9.60196 242.987 9.55525 242.828 9.5152C242.67 9.47515 242.481 9.44446 242.297 9.42875C241.971 9.42664 241.675 9.43907 241.42 9.46557C241.143 9.48601 241.343 9.61579 241.717 9.69279C241.875 9.72369 242.045 9.7478 242.211 9.76319C242.378 9.77858 242.537 9.78483 242.677 9.78145C242.817 9.77806 242.932 9.76513 243.015 9.74369C243.098 9.72224 243.146 9.69288 243.154 9.65792L243.16 9.64679ZM80.7346 -0.755215C79.9006 -0.915372 79.2588 -0.875081 78.5527 -0.93945C77.8466 -1.00382 77.6727 -1.01059 77.7672 -0.90759C77.8618 -0.804585 78.3459 -0.825476 78.6489 -0.782465C79.0584 -0.725393 79.4704 -0.692622 79.8387 -0.68781C80.2071 -0.682996 80.5173 -0.706335 80.7346 -0.755215ZM254.516 26.3435C254.075 26.3076 253.642 26.2822 253.225 26.2677C253.17 26.2826 253.136 26.3021 253.124 26.325C253.112 26.348 253.123 26.3739 253.156 26.4013C253.156 26.4013 253.439 26.4832 253.604 26.5067C254.213 26.5871 254.243 26.4719 254.516 26.3435ZM316.949 41.2652C317.248 41.3733 317.388 41.4468 317.627 41.4987C317.737 41.5167 317.851 41.5298 317.96 41.537C318.068 41.5442 318.17 41.5453 318.256 41.5402C318.361 41.5091 318.386 41.4614 318.325 41.4067C318.325 41.4067 318.021 41.3097 317.905 41.3052C317.574 41.2823 317.253 41.2689 316.949 41.2652ZM66.5393 -1.6709C65.9056 -1.76083 65.2994 -1.84686 64.8606 -1.74191C65.8669 -1.62897 65.867 -1.62896 66.5393 -1.6709ZM76.803 -0.644313C76.1631 -0.836646 75.7876 -0.854099 75.4805 -0.832C75.4152 -0.826435 75.372 -0.814028 75.3574 -0.796668C75.3428 -0.779307 75.3576 -0.757931 75.3996 -0.735774C75.4416 -0.713619 75.5085 -0.691888 75.5902 -0.673872C75.6718 -0.655853 75.7638 -0.642527 75.8522 -0.635912C76.1859 -0.630376 76.5042 -0.633186 76.803 -0.644313ZM109.736 -0.562985C109.751 -0.590803 109.768 -0.624183 109.603 -0.647644C109.56 -0.659553 109.509 -0.669795 109.456 -0.677344C109.402 -0.684894 109.349 -0.689481 109.3 -0.690649C109.3 -0.690649 109.283 -0.657266 109.271 -0.635012L109.736 -0.562985ZM132.606 45.6208L132.238 45.6462L132.404 45.6696L132.84 45.6838L132.606 45.6208ZM262.194 9.21272C262.056 9.19317 261.918 9.17362 261.898 9.21256C261.869 9.2186 261.851 9.2273 261.846 9.23795C261.84 9.2486 261.847 9.26087 261.867 9.27376C261.867 9.27376 262.06 9.30114 262.142 9.31287L262.194 9.21272ZM240.739 9.5242C240.649 9.52197 240.567 9.52458 240.499 9.53187L240.481 9.56525L240.757 9.60435L240.739 9.5242ZM53.7663 17.4779C53.6599 17.4576 53.5471 17.4416 53.4357 17.431L53.2979 17.4114C53.2979 17.4114 53.4459 17.4683 53.5286 17.48C53.6112 17.4917 53.6779 17.4773 53.7663 17.4779Z" fill="#DF6951"/>
</g>
</svg>
